<svg xmlns="http://www.w3.org/2000/svg" viewBox="0 0 500 500" style="enable-background:new 0 0 500 500" xml:space="preserve"><path d="M434 69.1H14.1C7.5 69 2.1 74.3 2 80.9v303.2c0 6.6 5.4 12 12 12h291.2c6 .1 11.1-4.1 12.2-10 1.1-6.5-3.3-12.7-9.8-13.8-.7-.1-1.3-.2-2-.2H26v-163h396V256c-.1 6.3 4.6 11.6 10.9 12.3 6.6.6 12.4-4.2 13-10.8 0-.4.1-.7.1-1.1V81.1c0-6.6-5.4-12-12-12zm-12 88H26v-64h396v64zM499.2 384.1c0 6.6-5.4 12-12 12h-41.4v41.4c0 6.6-5.4 12-12 12s-12-5.4-12-12v-41.4H381c-6.6 0-12-5.4-12-12s5.4-12 12-12h40.9v-40.9c0-6.6 5.4-12 12-12s12 5.4 12 12v40.9h41.4c6.6 0 11.9 5.3 11.9 12z"/></svg>