<svg version="1.1" id="Api_svg__Layer_1" xmlns="http://www.w3.org/2000/svg" x="0" y="0" viewBox="0 0 500 500" style="enable-background:new 0 0 500 500" xml:space="preserve"><path class="Api_svg__st0" d="M421.1 309.8c-9.8 0-18.7 3.9-25.2 10.3-.5-.4-.9-1-1.6-1.3l-46.9-25.5v-81.1l39.6-21.6c6.1 4.7 13.6 7.6 21.9 7.6 19.7 0 35.8-15.9 35.8-35.5s-16-35.5-35.8-35.5c-19.7 0-35.8 15.9-35.8 35.5 0 3.1.5 6 1.3 8.8l-32.9 17.9-85.8-48.9V89.8c14.1-4.8 24.4-17.9 24.4-33.5 0-19.6-16-35.5-35.8-35.5s-35.8 15.9-35.8 35.5c0 15.6 10.3 28.7 24.4 33.5v50.8l-81.2 46.3-37.3-20.2h-.1c.1-1.3.4-2.6.4-3.9 0-19.6-16.1-35.5-35.8-35.5s-35.8 15.9-35.8 35.5 16.1 35.5 35.8 35.5c10.1 0 19.2-4.2 25.7-10.9l36.5 19.9v90.4L105 318.3c-.7.4-1.1 1-1.7 1.5-6.4-6-15-9.8-24.6-9.8-19.7 0-35.8 15.9-35.8 35.5S59 381 78.7 381s35.8-15.9 35.8-35.5c0-2.3-.3-4.5-.7-6.7.8-.2 1.7-.2 2.4-.7l36.1-20.7 80.1 45.7-1.1 47.2c-14.1 4.7-24.4 17.9-24.4 33.5 0 19.6 16.1 35.5 35.8 35.5s35.8-15.9 35.8-35.5c0-15.6-10.2-28.7-24.3-33.5l1.1-47.1 84.3-48.1 43.6 23.7c.8.4 1.6.4 2.4.6-.3 1.9-.6 3.8-.6 5.8 0 19.6 16 35.5 35.8 35.5 19.7 0 35.8-15.9 35.8-35.5s-15.8-35.4-35.5-35.4zM78.9 175.4c-7.2 0-13-5.7-13-12.7s5.8-12.7 13-12.7 13 5.7 13 12.7-5.8 12.7-13 12.7zm0 182.5c-7.2 0-13-5.7-13-12.7s5.8-12.7 13-12.7 13 5.7 13 12.7-5.8 12.7-13 12.7zM409 150.1c7.2 0 13 5.7 13 12.7 0 7-5.8 12.7-13 12.7s-13-5.7-13-12.7c0-7.1 5.8-12.7 13-12.7zM244.3 43.6c7.2 0 13 5.7 13 12.7s-5.8 12.7-13 12.7-13-5.7-13-12.7 5.9-12.7 13-12.7zM243 456.4c-7.2 0-13-5.7-13-12.7s5.8-12.7 13-12.7 13 5.7 13 12.7-5.8 12.7-13 12.7zm81.6-158.9-80.3 45.8-80.3-45.8v-91.4l80.3-45.8 80.3 45.8v91.4zm96.5 60.4c-7.2 0-13-5.7-13-12.7s5.8-12.7 13-12.7 13 5.7 13 12.7-5.9 12.7-13 12.7z"/><path class="Api_svg__st0" d="M207.7 250.2c0 19.6 16 35.5 35.8 35.5 19.7 0 35.8-15.9 35.8-35.5s-16.1-35.5-35.8-35.5c-19.8 0-35.8 15.9-35.8 35.5zm48.7 0c0 7-5.8 12.7-13 12.7s-13-5.7-13-12.7c0-7 5.8-12.7 13-12.7s13 5.7 13 12.7z"/></svg>