<svg xmlns="http://www.w3.org/2000/svg" viewBox="0 0 500 500" style="enable-background:new 0 0 500 500" xml:space="preserve"><path d="m457.6 363.7-35.8 27.8v-21.9H280.9V250.4h-23.5v201.3h21.9L250 487.5l-29.3-35.7h21.9V250.4h-23.5v119.2H78.2v21.9l-35.7-27.9 35.7-30.7v21.9h126.7V250.4h-21v50.3h-45.2v21.9L103 294.7l35.7-30.8v21.9h31v-35.4h-44.8c-42.6 0-77-34.5-77-77s34.5-77 77-77c1.8 0 3.5.1 5.3.3 10.9-29.4 39-50.4 72.2-50.4 10.1 0 19.8 2 28.6 5.6 13.2-23.4 38.3-39.3 67.1-39.3 42.6 0 77 34.5 77 77 0 2.3-.1 4.6-.3 6.8h.3c42.6 0 77 34.5 77 77s-34.5 77-77 77h-44.8v35.4h30.9V264l35.7 30.8-35.7 27.9v-21.9h-45.1v-50.3h-21v104.4h126.7V333l35.8 30.7z"/></svg>