<svg xmlns="http://www.w3.org/2000/svg" viewBox="0 0 500 500" style="enable-background:new 0 0 500 500" xml:space="preserve"><path d="M250 2.3C146.5 2.3 51.5 69.2 16.8 166.8c-34.4 96.5-4.1 207 74.3 272.8 80.3 67.3 197.9 76.3 287.4 21.8 87.2-53.1 133.6-157.1 114.8-257.5C471.6 88.4 367.5 2.3 250 2.3zM44 336.8C4 242 35.7 129.3 118.8 68.9 203 7.7 322.2 14 399.5 83.7L123 360.3l-39.1 39.1c-16.7-18.5-30.2-39.6-39.9-62.6zm364 71.1c-82.8 82.7-220 86.7-307.1 8.5l276.6-276.5 39.1-39.1c78.2 87.1 74.2 224.3-8.6 307.1z"/></svg>