<svg xmlns="http://www.w3.org/2000/svg" viewBox="0 0 500 500" style="enable-background:new 0 0 500 500" xml:space="preserve"><circle cx="140.7" cy="245.8" r="27.3"/><circle cx="140.7" cy="355.2" r="27.3"/><circle cx="250" cy="245.8" r="27.3"/><circle cx="250" cy="355.2" r="27.3"/><circle cx="359.3" cy="245.8" r="27.3"/><circle cx="359.3" cy="355.2" r="27.3"/><path d="M488 100H371V47.7c.1-5.9-4.2-11.1-10-12.2-6.5-1.1-12.7 3.3-13.8 9.8-.1.7-.2 1.3-.2 2V100H153V47.7c.1-6-4.1-11.1-10-12.2-6.5-1.1-12.7 3.3-13.8 9.8-.1.7-.2 1.3-.2 2V100H12c-4.4 0-8 3.6-8 8v339c0 4.4 3.6 8 8 8h476c4.4 0 8-3.6 8-8V108c0-4.4-3.6-8-8-8zm-16 331H28V124h101v30.4c-.1 5.9 4.2 11.1 10 12.1 6.5 1.1 12.7-3.3 13.8-9.8.1-.7.2-1.3.2-2V124h194v30.3c-.1 6 4.1 11.1 10 12.2 6.5 1.1 12.7-3.3 13.8-9.8.1-.7.2-1.3.2-2V124h101v307z"/></svg>