<svg version="1.1" id="ChevronFr_svg__Layer_1" xmlns="http://www.w3.org/2000/svg" x="0" y="0" viewBox="0 0 500 500" style="enable-background:new 0 0 500 500" xml:space="preserve"><path class="ChevronFr_svg__st0" d="M51.6 484.6c-4.7 0-9.3-1.8-12.8-5.4-7-7.1-6.9-18.5.2-25.5L246.4 250 39.1 46.2c-7.1-7-7.2-18.4-.2-25.5s18.4-7.2 25.5-.2l220.3 216.7c3.4 3.4 5.4 8 5.4 12.8s-1.9 9.5-5.4 12.8L64.2 479.5c-3.5 3.4-8.1 5.1-12.6 5.1z"/><path class="ChevronFr_svg__st0" d="M227.6 484.6c-4.7 0-9.3-1.8-12.8-5.4-7-7.1-6.9-18.5.2-25.5L422.4 250 215.1 46.2c-7.1-7-7.2-18.4-.2-25.5s18.4-7.2 25.5-.2l220.3 216.7c3.4 3.4 5.4 8 5.4 12.8s-1.9 9.5-5.4 12.8L240.2 479.5c-3.5 3.4-8.1 5.1-12.6 5.1z"/></svg>