<svg version="1.1" id="ChevronFl_svg__Layer_1" xmlns="http://www.w3.org/2000/svg" x="0" y="0" viewBox="0 0 500 500" style="enable-background:new 0 0 500 500" xml:space="preserve"><path class="ChevronFl_svg__st0" d="M446.1 484.6c4.7 0 9.3-1.8 12.8-5.4 7-7.1 6.9-18.5-.2-25.5L251.2 250 458.5 46.2c7.1-7 7.2-18.4.2-25.5s-18.4-7.2-25.5-.2L212.9 237.2c-3.4 3.4-5.4 8-5.4 12.8s1.9 9.5 5.4 12.8l220.5 216.6c3.6 3.5 8.1 5.2 12.7 5.2z"/><path class="ChevronFl_svg__st0" d="M270.1 484.6c4.7 0 9.3-1.8 12.8-5.4 7-7.1 6.9-18.5-.2-25.5L75.2 250 282.5 46.2c7.1-7 7.2-18.4.2-25.5s-18.4-7.2-25.5-.2L36.9 237.2c-3.4 3.4-5.4 8-5.4 12.8s1.9 9.5 5.4 12.8l220.5 216.6c3.6 3.5 8.1 5.2 12.7 5.2z"/></svg>