<svg xmlns="http://www.w3.org/2000/svg" viewBox="0 0 500 500" style="enable-background:new 0 0 500 500" xml:space="preserve"><path d="M249.5 26.4C373 26.5 473 126.6 472.9 250.1c-.1 89.7-53.8 170.7-136.4 205.7-113.7 48-244.9-5.2-292.9-118.9S48.8 92 162.5 43.9c27.5-11.6 57.1-17.6 87-17.5m0-24C112.8 2.4 2 113.2 2 249.9s110.8 247.5 247.5 247.5S497 386.6 497 249.9 386.2 2.4 249.5 2.4z"/><path d="M169.9 349.1c-2.9 0-5.7-1.2-7.8-3.2l-88-87.6c-4.3-4.3-4.4-11.2-.1-15.6l.1-.1 87.9-86.5c4.3-4.3 11.3-4.2 15.6.1 4.3 4.3 4.2 11.3-.1 15.6l-80 78.7 80.1 79.8c4.3 4.3 4.3 11.3 0 15.6-2 2-4.8 3.2-7.7 3.2zM328.2 349.1c-6.1 0-11-4.9-11-11 0-2.9 1.2-5.7 3.2-7.8l80.1-79.8-80-78.7c-4.3-4.3-4.4-11.2-.1-15.6s11.2-4.4 15.6-.1l87.9 86.5c4.3 4.3 4.4 11.2.1 15.6l-.1.1-87.9 87.6c-2.1 2.1-4.9 3.2-7.8 3.2zM217.5 382c-6.1 0-11-4.9-11-11 0-1.1.1-2.1.4-3.1l72.4-247c1.8-5.8 7.9-9.1 13.7-7.3 5.7 1.7 9 7.7 7.4 13.5l-72.4 247c-1.3 4.7-5.6 7.9-10.5 7.9z"/></svg>