<svg xmlns="http://www.w3.org/2000/svg" viewBox="0 0 500 500" style="enable-background:new 0 0 500 500" xml:space="preserve"><path d="M382.3 190.5 224.6 348.2c-4.7 4.7-12.3 4.7-17 0l-89.9-89.9c-4.7-4.7-4.7-12.3 0-17s12.3-4.7 17 0l81.4 81.4 149.2-149.2c4.7-4.7 12.3-4.7 17 0s4.7 12.3 0 17z"/><path d="M250 26.3c93.3 0 178.8 60.1 210.4 147.9 31.9 88.6 3.3 190.2-69.9 249.5-72.1 58.4-175.9 65.5-255.4 17.9C56 394.3 13.4 300 30.1 209.3c19.4-104.7 113.4-183 219.9-183m0-24C146.5 2.3 51.5 69.2 16.8 166.8c-34.4 96.5-4.1 207 74.3 272.8 80.3 67.3 197.9 76.3 287.4 21.8 87.2-53.1 133.6-157.1 114.8-257.5C471.6 88.4 367.5 2.3 250 2.3z"/></svg>