<svg xmlns="http://www.w3.org/2000/svg" viewBox="0 0 500 500" style="enable-background:new 0 0 500 500" xml:space="preserve"><path d="M420.8 70.1c0 27.4-18.4 50.5-43.5 57.7-20.2 53.5-68.4 73.6-105.9 89.1-48.5 20.1-73.7 32.7-73.7 79.7v79.2c20 9.8 33.8 30.3 33.8 54 0 33.2-27 60.1-60.1 60.1-33.2 0-60.1-27-60.1-60.1 0-23.7 13.8-44.2 33.8-54V124.1c-20-9.8-33.8-30.3-33.8-54 0-33.2 27-60.1 60.1-60.1 33.2 0 60.1 27 60.1 60.1 0 23.7-13.8 44.2-33.8 54v70.6c17.1-11.3 36.1-19.2 53.6-26.4 32.8-13.6 59.4-24.7 73.1-50.4-14.4-11-23.7-28.3-23.7-47.8 0-33.2 27-60.1 60.1-60.1s60 27 60 60.1zM171.3 36.3c-18.6 0-33.8 15.2-33.8 33.8 0 18.6 15.2 33.8 33.8 33.8 18.6 0 33.8-15.2 33.8-33.8 0-18.6-15.2-33.8-33.8-33.8zm0 427.4c18.6 0 33.8-15.2 33.8-33.8 0-18.6-15.2-33.8-33.8-33.8-18.6 0-33.8 15.2-33.8 33.8 0 18.6 15.2 33.8 33.8 33.8zm189.4-359.8c18.6 0 33.8-15.2 33.8-33.8 0-18.6-15.2-33.8-33.8-33.8-18.6 0-33.8 15.2-33.8 33.8 0 18.7 15.2 33.8 33.8 33.8z"/></svg>