<svg version="1.1" id="CustomSettings_svg__Layer_1" xmlns="http://www.w3.org/2000/svg" x="0" y="0" viewBox="0 0 500 500" style="enable-background:new 0 0 500 500" xml:space="preserve"><g id="CustomSettings_svg__Components-_-Patterns"><g id="CustomSettings_svg__Portal-v2-Icons-in-progress-"><g id="CustomSettings_svg__nav-integrations"><path class="CustomSettings_svg__st0" d="M462.1 385.9h-.2l-48.7.7c-7.3-32.4-39.5-52.7-71.9-45.4-23.2 5.2-41.1 23.7-45.7 47L42 391.6c-6.9 0-12.5 5.7-12.4 12.6s5.7 12.5 12.6 12.4h.2l254-3.5c8 32.2 40.7 51.8 72.9 43.8 22.2-5.5 39.3-23.1 44.2-45.4l48.9-.7c6.9 0 12.5-5.7 12.4-12.6-.1-6.8-5.7-12.4-12.7-12.3zm-74.9 26c-7.4 18-27.9 26.6-45.9 19.2-8.4-3.4-15.2-10-18.8-18.3-3.4-7.9-3.7-16.9-.9-25 6.7-18.3 26.9-27.6 45.1-21 9.4 3.4 16.9 10.7 20.6 20.1 3.2 8 3.1 16.9-.1 25z" id="CustomSettings_svg__Line-Copy"/><path class="CustomSettings_svg__st0" d="M462.1 238.7H203.7c-6.1-32.6-37.5-54.1-70.1-48-24.4 4.6-43.5 23.6-48 48H42.2c-6.9 0-12.5 5.6-12.5 12.5s5.6 12.5 12.5 12.5h44.3c8.4 32.1 41.2 51.4 73.3 43.1 21.1-5.5 37.6-22 43.1-43.1h259.3c6.9 0 12.5-5.6 12.5-12.5s-5.6-12.5-12.6-12.5zm-285.7 25c-8.4 17.5-29.4 24.9-47 16.5-7.2-3.5-13.1-9.3-16.5-16.5-3.7-7.8-4.3-16.8-1.6-25 6.1-18.4 26-28.4 44.5-22.3 10.5 3.5 18.8 11.8 22.3 22.3 2.6 8.3 2 17.2-1.7 25z" id="CustomSettings_svg__Stroke-14"/><path class="CustomSettings_svg__st0" d="M462.1 88.7H353.7c-6.1-32.6-37.5-54.1-70.1-48-24.4 4.6-43.5 23.6-48 48H42.2c-6.9 0-12.5 5.6-12.5 12.5s5.6 12.5 12.5 12.5h194.3c8.4 32.1 41.2 51.4 73.3 43.1 21.1-5.5 37.6-22 43.1-43.1h109.3c6.9 0 12.5-5.6 12.5-12.5s-5.6-12.5-12.6-12.5zm-135.7 25c-8.4 17.5-29.4 24.9-47 16.5-7.2-3.5-13.1-9.3-16.5-16.5-3.7-7.8-4.3-16.8-1.6-25 6.1-18.4 26-28.4 44.5-22.3 10.5 3.5 18.8 11.8 22.3 22.3 2.6 8.3 2 17.2-1.7 25z" id="CustomSettings_svg__Stroke-14-2"/></g></g></g></svg>