<svg xmlns="http://www.w3.org/2000/svg" viewBox="0 0 500 500" style="enable-background:new 0 0 500 500" xml:space="preserve"><path d="M489 22c0-6.6-5.4-12-12-12H24c-6.6 0-12 5.4-12 12v453c0 6.6 5.4 12 12 12h453c6.6 0 12-5.4 12-12V22zm-24 441H36V337h427c.7 0 1.3-.1 2-.2V463zm0-149.8c-.7-.1-1.3-.2-2-.2H36V185h428c.3 0 .7 0 1-.1v128.3zm0-152.2c-.3 0-.7-.1-1-.1H36V34h429v127z"/><path d="M115.9 411h-8.4c-6.2.1-11.6-4.3-12.7-10.5-1.1-6.8 3.5-13.3 10.3-14.4.7-.1 1.4-.2 2-.2h8.4c6.2-.1 11.6 4.3 12.7 10.5 1.1 6.8-3.5 13.3-10.3 14.4-.6.1-1.3.2-2 .2zM115.9 260h-8.4c-6.2.1-11.6-4.3-12.7-10.4-1.1-6.8 3.5-13.3 10.3-14.4.7-.1 1.4-.2 2-.2h8.4c6.2-.1 11.6 4.3 12.7 10.4 1.1 6.8-3.5 13.3-10.3 14.4-.6.1-1.3.2-2 .2zM115.6 107h-8.1c-6.2.1-11.6-4.3-12.7-10.4-1.1-6.8 3.5-13.3 10.3-14.4.7-.1 1.4-.2 2-.2h8.8c6.9 0 12.5 5.6 12.5 12.5 0 .7-.1 1.4-.2 2-1.1 6.2-6.4 10.6-12.6 10.5z"/></svg>