<svg xmlns="http://www.w3.org/2000/svg" viewBox="0 0 500 500" style="enable-background:new 0 0 500 500" xml:space="preserve"><path d="M251.4 497.8C116.9 497.8 7.5 386.7 7.5 250.1S116.9 2.2 251.4 2.2s244.1 111.2 244.1 247.9S386 497.8 251.4 497.8zm0-475.6C128 22.2 27.5 124.4 27.5 250.1s100.4 227.7 223.9 227.7 224.1-102.2 224.1-227.7S375 22.2 251.4 22.2z"/><path d="M383.1 138.3c5.4-10 5.7-22 1-32.3-5.7-12.5-18.2-20.6-31.9-20.6-8.6.1-16.9 3.3-23.3 9-24.1-12.6-50.8-19.1-78-19.1-70.9 0-131.9 43.8-158.1 106.4-4.7.1-9.4 1.2-13.7 3.2-17.7 8.6-25.3 29.8-17 47.6 3.4 7.5 9.4 13.6 16.9 17.1v.4c0 96.4 77.1 174.7 171.9 174.7s172-78.2 172-174.7c.1-40.7-14-80.2-39.8-111.7m-38.5-34.2c.3-.1.4-.3.6-.3 2.3-1.1 4.8-1.7 7.4-1.7 10.5.1 18.9 8.8 18.7 19.3 0 1.1-.1 2.2-.3 3.3-.1 1-.4 2-.8 3-1.6 4.8-5.2 8.6-9.7 10.8-1.4.8-3 1.3-4.5 1.5-1.1.2-2.2.2-3.3.3-7.3 0-13.9-4.3-17-10.9-1-2.3-1.6-4.8-1.8-7.4-.4-7.6 3.9-14.7 10.7-17.9M204 111.2c2.5-1.2 5.2-1.9 7.9-1.8 7.3 0 14 4.3 17 11 2.2 4.5 2.4 9.7.6 14.4-1.6 4.8-5.1 8.8-9.7 10.9-2.4 1.2-5.1 1.8-7.8 1.8-7.4 0-14.1-4.3-17.1-11-4.3-9.5-.3-20.7 9.1-25.3m11.9 192.1c-5.7-12.5-18.1-20.5-31.8-20.5-3.2 0-6.4.4-9.4 1.4-4.7-10.8-7.2-22.4-7.1-34.1 0-47.1 37.7-85.3 83.9-85.3s83.9 38.2 83.9 85.3-37.5 85.3-83.9 85.3c-11.5 0-22.8-2.5-33.3-7.1 2.1-8.4 1.3-17.2-2.3-25m-13.2 15.8c0 1.9-.4 3.8-1 5.6-1.6 4.8-5.1 8.7-9.7 10.9-.6.3-1.3.6-2.1.9-1.9.6-3.9.9-5.9.9-7.3 0-14-4.3-17-11-4.5-9.5-.5-20.8 8.9-25.3 2.2-1.1 4.7-1.8 7.1-2h.9c7.3.1 14 4.5 17 11.2 1.4 2.7 2 5.8 1.8 8.8m-122.1-89c-1.3-1.4-2.3-2.9-3.1-4.7-4.4-9.5-.3-20.7 9.1-25.3h.1c2.4-1.1 5.1-1.8 7.8-1.8 4.9.1 9.7 2.1 13.2 5.6 1.6 1.5 2.9 3.4 3.8 5.4 2.2 4.6 2.4 9.8.6 14.5-1.6 4.8-5.1 8.7-9.7 10.8-.3.1-.6.4-.9.5-2.2.8-4.5 1.3-6.9 1.3-5.3 0-10.4-2.3-14-6.3m170.8 173c-82.1 0-149.2-67.2-150.5-150.4 3-.5 5.9-1.5 8.6-2.9 17.7-8.6 25.3-29.8 17-47.6-2.7-6-7-11-12.5-14.7 13.4-30.2 36.2-55.3 65-71.6-3.4 9-3.1 19 1 27.8 3.1 6.9 8.4 12.6 15.1 16.2-30.5 19.8-48.9 53.8-48.8 90.2 0 15.9 3.5 31.6 10.2 46.1-8.3 10.8-10.1 25.2-4.5 37.6 5.8 12.5 18.2 20.5 32 20.6 5.2-.1 10.4-1.2 15.1-3.4 2.5-1.2 4.9-2.7 7-4.5 14.1 6.9 29.6 10.5 45.2 10.5 39.3 0 73.8-22.2 91.8-54.9 6.4 10.2 17.6 16.4 29.6 16.5 5.2 0 10.3-1.2 14.9-3.5-23.9 51.9-76.1 88-136.2 88m139.1-114c-1.6 4.8-5.1 8.8-9.7 10.9-2.5 1.2-5.2 1.8-7.9 1.8-7.3-.1-13.9-4.3-17-11-4.4-9.5-.4-20.9 9.1-25.4 2.4-1.2 5.1-1.8 7.8-1.8 7.4 0 14.1 4.3 17.1 11 2.1 4.6 2.3 9.8.6 14.5M373.1 247c-5.2 0-10.2 1.1-14.9 3.2-.4.3-.7.5-1.1.6v-.8c0-58.9-47.1-106.9-105.2-106.9-2.4 0-5 .1-7.4.3 4.4-9.6 4.3-20.7-.1-30.2-2.7-6.1-7.2-11.2-12.8-14.8 29.9-4.2 60.4.9 87.4 14.5-4.7 19.2 7 38.5 26.2 43.2 2.6.6 5.3 1 8 1 5.2 0 10.3-1.2 15-3.4.2-.1.4-.2.5-.4 22.1 27.4 34.1 61.5 34 96.7 0 4-.1 7.9-.5 11.9-6.7-9.4-17.6-15-29.1-14.9"/><path d="M251.5 206.6c-23.6 0-42.8 19.5-42.8 43.5s19.2 43.5 42.8 43.5 42.8-19.5 42.8-43.5-19.3-43.5-42.8-43.5m0 65.3c-12 .2-21.9-9.4-22.1-21.5s9.4-21.9 21.5-22.1c12-.2 21.9 9.4 22.1 21.5v.3c.1 11.9-9.5 21.6-21.5 21.8"/></svg>