<svg xmlns="http://www.w3.org/2000/svg" xmlns:xlink="http://www.w3.org/1999/xlink" viewBox="0 0 500 500" style="enable-background:new 0 0 500 500" xml:space="preserve"><defs><path id="DedicatedNav_svg__a" d="M251.6 20.6c-131 0-237.5 104.4-237.5 232.5s106.4 232.3 237.4 232.3 237.6-104.2 237.6-232.3S382.5 20.6 251.6 20.6m0 443.6c-119 0-215.8-94.7-215.8-211.1S132.5 41.8 251.6 41.8s216 94.8 216 211.3-96.9 211.1-216 211.1"/></defs><clipPath id="DedicatedNav_svg__b"><use xlink:href="#DedicatedNav_svg__a" style="overflow:visible"/></clipPath><g><defs><path id="DedicatedNav_svg__c" d="M-6309.5-11427.9H8963V1357.8H-6309.5z"/></defs><clipPath id="DedicatedNav_svg__d"><use xlink:href="#DedicatedNav_svg__c" style="overflow:visible"/></clipPath><path d="M-103.2-96.7h709.6v699.4h-709.6z"/><g><defs><path id="DedicatedNav_svg__e" d="M385.7 143.9c5.4-9.7 5.8-21.5 1-31.6-6-12.4-18.6-20.2-32.4-20.2-5.3-.1-10.5 1.1-15.3 3.4-3 1.4-5.8 3.1-8.3 5.3-24.6-12.3-51.7-18.7-79.2-18.6-72 0-133.9 42.9-160.5 104-4.8.1-9.5 1.2-13.9 3.2-18 8.2-25.7 29.2-17.2 46.5 3.6 7.4 9.6 13.3 17.1 16.7v.4c0 94.2 78.3 170.7 174.5 170.7S426.1 347.2 426.1 253c0-40-14.4-78.7-40.4-109.1m-39.5-33.5c.3-.1.4-.2.6-.2 2.4-1.1 4.9-1.6 7.5-1.7 7.3 0 14 4.2 17.2 10.8 1.7 3.5 2.2 7.5 1.4 11.3-.1 1-.4 2-.8 2.9-1.7 4.7-5.3 8.5-9.8 10.5-1.5.8-3 1.3-4.7 1.5-1.1.2-2.2.2-3.4.2-7.3 0-14-4.1-17.2-10.6-1-2.3-1.6-4.7-1.8-7.2-.2-7.5 4.1-14.5 11-17.5m-142.7 7c2.5-1.2 5.2-1.8 8-1.8 7.3 0 14 4.2 17.2 10.8 2.2 4.4 2.5 9.5.6 14.1-1.7 4.8-5.3 8.6-9.9 10.6-2.5 1.2-5.2 1.8-7.9 1.8-7.4 0-14.1-4.1-17.4-10.8-4.3-9.2-.4-20.2 8.8-24.6.3 0 .4-.1.6-.1m12 187.7c-6-12.7-18.9-20-32.3-20-3.2 0-6.5.4-9.6 1.4-4.8-10.5-7.3-21.8-7.3-33.4 0-46 38.2-83.3 85.2-83.3s85.2 37.3 85.2 83.3-38.1 83.3-85.2 83.3c-11.6 0-23.1-2.4-33.8-7 2.3-8.1 1.5-16.8-2.2-24.3m-13.4 15.7c0 1.9-.4 3.7-1 5.5-1.7 4.7-5.3 8.6-9.8 10.6-.6.2-1.3.6-2.1.9-1.9.6-4 .9-6 .9-7.3 0-14-4.2-17.2-10.8-2.1-4.3-2.4-9.2-.9-13.7 2.7-7.4 9.4-12.4 17.2-12.9h.9c7.4 0 14.1 4.3 17.3 10.9 1.3 2.6 1.9 5.6 1.6 8.6M78.2 233.5c-1.3-1.3-2.3-2.8-3.1-4.5-4.3-9.2-.4-20.2 8.9-24.6.1-.1.2-.1.3-.1h.1c2.5-1.1 5.2-1.7 7.9-1.8 5 .1 9.7 2 13.3 5.4 1.7 1.5 3 3.3 3.9 5.3 2.2 4.4 2.5 9.6.7 14.2-1.7 4.7-5.2 8.5-9.8 10.5-.3.1-.7.4-.9.5-2.2.8-4.6 1.2-7 1.3-5.4.1-10.6-2.1-14.3-6.2m173.4 169.1c-83.4 0-151.4-65.7-152.7-147 3-.5 5.9-1.4 8.7-2.8 18-8.2 25.7-29 17.2-46.5-2.8-5.9-7.2-10.8-12.8-14.3 13.9-29.8 37-54.4 66-70-3.5 8.8-3.1 18.6 1 27.1 3.2 6.8 8.6 12.4 15.3 15.9-29.8 18.5-49.5 51.1-49.5 88.1 0 15.6 3.5 31 10.4 45-8.4 10.4-10.2 24.7-4.5 36.8 6.1 12.4 18.8 20.2 32.6 20.2 5.3-.1 10.5-1.2 15.3-3.3 2.6-1.2 5-2.7 7.1-4.4 14.4 6.7 30 10.2 45.9 10.3 38.4.1 74-20.4 93.2-53.6 9.8 14.9 29.1 20.3 45.2 12.7-24.5 50.5-77.4 85.8-138.4 85.8m141.1-111.4c-1.7 4.8-5.2 8.6-9.9 10.6-9.5 4.4-20.7.4-25.3-9-4.4-9.2-.5-20.3 8.7-24.7.2-.1.3-.2.5-.2 2.5-1.2 5.2-1.8 7.9-1.8 7.4 0 14.1 4.1 17.4 10.8 2.2 4.5 2.5 9.7.7 14.3m-18-41.2c-5.2 0-10.4 1.1-15.2 3.2-.4.3-.8.5-1.2.6v-.8c0-57.6-47.8-104.5-106.8-104.5-2.5 0-5.1.1-7.5.2 4.4-9.4 4.4-20.2-.1-29.6-2.8-6-7.3-11-13-14.5 6.8-.9 13.7-1.4 20.6-1.4 23.6 0 46.9 5.3 68.1 15.6-2 7.7-1.2 15.9 2.3 23.1 6 12.4 18.6 20.2 32.4 20.2 5.2 0 10.4-1.2 15.2-3.3.2-.1.4-.2.5-.4 22.3 26.4 34.5 59.9 34.5 94.5 0 3.9-.1 7.7-.5 11.7-6.8-9.3-17.7-14.8-29.3-14.6"/></defs><clipPath id="DedicatedNav_svg__f"><use xlink:href="#DedicatedNav_svg__e" style="overflow:visible"/></clipPath><g><defs><path id="DedicatedNav_svg__g" d="M-6309.5-11427.9H8963V1357.8H-6309.5z"/></defs><clipPath id="DedicatedNav_svg__h"><use xlink:href="#DedicatedNav_svg__g" style="overflow:visible"/></clipPath><path d="M-60.8-35h604.3v576.1H-60.8z"/><g><defs><path id="DedicatedNav_svg__i" d="M251.7 210.6c-24 0-43.4 19-43.4 42.5s19.4 42.5 43.4 42.5 43.4-19 43.4-42.5-19.6-42.5-43.4-42.5m0 63.8c-12.1 0-21.9-9.5-21.9-21.3s9.8-21.3 21.9-21.3 21.8 9.5 21.8 21.3-9.9 21.3-21.8 21.3"/></defs><clipPath id="DedicatedNav_svg__j"><use xlink:href="#DedicatedNav_svg__i" style="overflow:visible"/></clipPath><g><defs><path id="DedicatedNav_svg__k" d="M-6309.5-11427.9H8963V1357.8H-6309.5z"/></defs><clipPath id="DedicatedNav_svg__l"><use xlink:href="#DedicatedNav_svg__k" style="overflow:visible"/></clipPath><path d="M90.9 93.3h321.5v319.6H90.9z"/></g></g></g></g></g></svg>