<svg xmlns="http://www.w3.org/2000/svg" viewBox="0 0 500 500" style="enable-background:new 0 0 500 500" xml:space="preserve"><path d="m452 136.2-120-120c-2.3-2.3-5.3-3.5-8.5-3.5h-264c-6.6 0-12 5.4-12 12v456c0 6.6 5.4 12 12 12h384c6.6 0 12-5.4 12-12v-336c0-3.2-1.3-6.2-3.5-8.5zm-33.5.5h-89.1V47.6l89.1 89.1zm13 332h-360v-432h233.9v112c0 6.6 5.4 12 12 12h114.1v308z"/><path d="M347.5 268.9h-192c-6.6 0-12-5.4-12-12s5.4-12 12-12h192c6.6 0 12 5.4 12 12s-5.3 12-12 12zM203.5 172.9h-48c-6.6 0-12-5.4-12-12s5.4-12 12-12h48c6.6 0 12 5.4 12 12s-5.3 12-12 12zM347.5 364.9h-192c-6.6 0-12-5.4-12-12s5.4-12 12-12h192c6.6 0 12 5.4 12 12s-5.3 12-12 12z"/></svg>