<svg xmlns="http://www.w3.org/2000/svg" viewBox="0 0 500 500" style="enable-background:new 0 0 500 500" xml:space="preserve"><path d="M467.8 467.5h-432c-6.9 0-12.5-5.6-12.5-12.5V306.5c0-6.9 5.6-12.5 12.5-12.5s12.5 5.6 12.5 12.5v136h407v-136c0-6.9 5.6-12.5 12.5-12.5s12.5 5.6 12.5 12.5V455c0 7-5.6 12.5-12.5 12.5z"/><path d="m333.7 285.4-73 73c-4.9 4.9-12.8 4.9-17.7 0l-73-73c-4.8-5-4.7-12.9.3-17.7 4.8-4.7 12.5-4.7 17.4 0l51.8 51.8V39.4c0-6.9 5.6-12.5 12.5-12.5s12.5 5.6 12.5 12.5v279.9l51.6-51.6c4.9-4.9 12.8-4.9 17.7 0s4.8 12.9-.1 17.7z"/></svg>