<svg version="1.1" id="Draghandle_svg__Layer_1" xmlns="http://www.w3.org/2000/svg" x="0" y="0" viewBox="0 0 500 500" style="enable-background:new 0 0 500 500" xml:space="preserve"><path class="Draghandle_svg__st0" d="M473.7 271H26c-10.1 0-18.4-8.2-18.4-18.4s8.2-18.4 18.4-18.4h447.7c10.1 0 18.4 8.2 18.4 18.4s-8.2 18.4-18.4 18.4zM473.7 173H26c-10.1 0-18.4-8.2-18.4-18.4s8.2-18.4 18.4-18.4h447.7c10.1 0 18.4 8.2 18.4 18.4s-8.2 18.4-18.4 18.4zM472 369.8H26c-10.1 0-18.4-8.2-18.4-18.4S15.9 333 26 333h446c10.1 0 18.4 8.2 18.4 18.4s-8.3 18.4-18.4 18.4z"/></svg>