<svg xmlns="http://www.w3.org/2000/svg" viewBox="0 0 500 500" style="enable-background:new 0 0 500 500" xml:space="preserve"><path d="M202.5 462.2c-2.7 0-5.3-.9-7.3-2.6-2.7-2.3-4.2-5.6-4.2-9.2V328.3L82 173.6c-3.2-4.3-3.1-10.3.4-14.4 2.3-2.6 5.6-4 9-4h325c3.4 0 6.7 1.4 9 4 3.5 4.1 3.7 10.1.4 14.4L315 328.3v45c0 3.5-1.6 6.8-4.3 9l-101.1 77.4c-2 1.6-4.5 2.5-7.1 2.5zm-88-284.1 97.2 139.4c1.5 2 2.3 4.4 2.3 6.9v102.4l78-59.2v-43.3c0-2.5.8-4.9 2.3-6.9L393.5 178l-279 .1zM62.7 139.8c-4.4 0-8.4-2.5-10.3-6.4L39 110.5c-.3-.5-.4-1.1-.5-1.7-1-8 4.8-13.7 11.5-13.7h404.2c.6 0 1.2.1 1.8.3 7.7 2.8 10.1 10.7 7 16.6l-13.4 21.7c-3 5.6-9.9 7.8-15.5 4.8s-7.8-9.9-4.8-15.5l3.5-4.8H69.4l5 8c.7 1.4.8 3 .2 4.5-2.5 6.3-7.3 9.1-11.9 9.1zM473.7 79.1c-4.3 0-8.9-2.5-11.7-8.2-.7-1.5-.8-3.3-.1-4.8l4.7-9H34.2l4.8 8.3c.7 1.5.7 3.3 0 4.8-5.3 12-18.4 10.5-22.3 1.9L5.9 50.4c-2.7-5.9-.2-13.3 7.1-15.9.7-.2 1.4-.4 2.1-.4h470c.6 0 1.2.1 1.7.2 7.3 2.4 10.1 9.7 7.6 15.7l-10.1 22c-1.7 4.3-5.9 7.1-10.6 7.1z"/></svg>