<svg xmlns="http://www.w3.org/2000/svg" viewBox="0 0 500 500" style="enable-background:new 0 0 500 500" xml:space="preserve"><path d="M246.1 479.1c-6.9 0-13.2-3.8-16.4-9.9L105.4 232.9c-.6-1-.9-2.2-1.2-3.3-34.5-78.3 1-169.7 79.2-204.2 19.7-8.7 41-13.2 62.5-13.2h.1c85.7.1 155.2 69.6 155.1 155.4 0 21.5-4.5 42.8-13.2 62.5-.2 1-.6 2.1-1.1 3L262.5 469.2c-3.2 6.1-9.6 9.9-16.4 9.9zM128.1 225 246 449.4l118.3-224.5.6-1.8c30.3-65.8 1.6-143.6-64.2-174-17.2-7.9-35.9-12-54.8-12h.1c-34.7-.1-68 13.7-92.4 38.3-38.7 38.9-49.1 97.8-26.2 147.6.3.6.6 1.3.7 2z"/><path d="M246.1 205.7c-12.3 0-24.1-4.9-32.7-13.6-18.1-18.1-18.1-47.4 0-65.5s47.4-18.1 65.5 0 18.1 47.4 0 65.5c-8.8 8.8-20.6 13.6-32.8 13.6zm0-68.5c-12.3 0-22.3 10-22.3 22.3 0 5.9 2.3 11.5 6.5 15.7 8.7 8.7 22.8 8.8 31.5.1s8.8-22.8.1-31.5c-4.2-4.3-9.9-6.7-15.8-6.6z"/><path d="M246.1 257.2c-54 0-97.7-43.8-97.7-97.7 0-54 43.8-97.7 97.7-97.7s97.7 43.8 97.7 97.7c0 25.9-10.3 50.8-28.6 69.1s-43.2 28.6-69.1 28.6zm0-171.5c-40.7 0-73.7 33-73.7 73.7 0 19.6 7.8 38.3 21.6 52.2 28.8 28.8 75.5 28.8 104.3 0s28.8-75.5 0-104.3c-13.9-13.8-32.7-21.6-52.2-21.6z"/></svg>