<svg xmlns="http://www.w3.org/2000/svg" viewBox="0 0 500 500" style="enable-background:new 0 0 500 500" xml:space="preserve"><path d="M476.2 227.2C453 189.6 420.6 158.5 382 137c-.5-.3-1-.6-1.5-.8l88-88c4.7-4.7 4.7-12.3 0-17s-12.3-4.7-17 0L357.8 125c-77.5-33.5-166.2-29-239.9 12.1-38.6 21.6-71 52.8-94.2 90.5-8.4 13.6-8.4 30.7 0 44.3 23.2 37.7 55.6 68.8 94.2 90.5.5.3 1.1.6 1.6.9l-88 88c-4.7 4.7-4.7 12.3 0 17s12.3 4.7 17 0l93.7-93.8c77.5 33.5 166.1 29 239.8-12 38.6-21.6 71-52.7 94.2-90.4 8.6-13.7 8.5-31.1 0-44.9zM129.7 341.5c-17.5-9.8-33.7-21.9-48.2-35.8-14.4-13.8-26.9-29.3-37.3-46.3-3.6-5.9-3.6-13.4 0-19.3 21-34.2 50.5-62.4 85.5-82.1 64.3-35.8 141.1-41.2 209.8-14.6l-37 37c-38.5-28.8-93-20.9-121.8 17.6-23.1 30.9-23.1 73.3 0 104.2l-43.4 43.4c-2.6-1.3-5.1-2.7-7.6-4.1zm172.6-127c19.5 28.8 11.9 68-16.9 87.5-21.3 14.4-49.2 14.4-70.6 0l87.5-87.5zM197.9 285c-19.4-28.9-11.8-68 17.1-87.4 21.3-14.3 49.1-14.3 70.3 0L197.9 285zm257.9-25.4c-21 34.2-50.5 62.4-85.5 82-36.8 20.5-78.2 31.3-120.3 31.2-30.6 0-60.9-5.6-89.4-16.6l37-37c38.4 28.8 93 21 121.8-17.4 23.2-30.9 23.2-73.4 0-104.4l43.4-43.4c2.5 1.3 5 2.6 7.5 4 35 19.6 64.4 47.7 85.5 81.8 3.7 6 3.7 13.7 0 19.8z"/></svg>