<svg xmlns="http://www.w3.org/2000/svg" viewBox="0 0 500 500" style="enable-background:new 0 0 500 500" xml:space="preserve"><path d="M496.6 250.1c0 122.2-99.1 221.2-221.2 221.2-58.6 0-114.9-23.3-156.3-64.7-32.2-31.9-53.6-73.1-61.5-117.7h-44c-6.7 0-12.2-5.4-12.2-12.2 0-2.6.9-5.2 2.4-7.3L61 193.2c4-5.4 11.7-6.5 17.1-2.4.9.7 1.8 1.5 2.4 2.4l57.2 76.2c4 5.4 3 13-2.4 17.1-2.1 1.6-4.7 2.4-7.3 2.4H82c18 90.3 97.9 158.5 193.4 158.5 108.7 0 197.2-88.5 197.2-197.2S384.1 52.9 275.4 52.9c-53.1-.2-104 21.2-141 59.3-4.6 4.7-12.2 4.8-17 .2s-4.8-12.2-.2-17C202.6 8.1 342.7 6.6 430 92c42.6 41.6 66.6 98.6 66.6 158.1z"/><path d="M238.8 345.8c-6.6 0-12-5.4-12-12 0-1.9.4-3.7 1.3-5.4l40.6-81.1V124.6c0-6.6 5.4-12 12-12s12 5.4 12 12v125.5c0 1.9-.4 3.7-1.3 5.4l-41.8 83.7c-2.2 4-6.3 6.6-10.8 6.6z"/></svg>