<svg xmlns="http://www.w3.org/2000/svg" viewBox="0 0 500 500" style="enable-background:new 0 0 500 500" xml:space="preserve"><path d="M486.4 440.1H13.9c-6.6 0-11.9-5.3-11.9-11.9V79.8c0-6.6 5.3-11.9 11.9-11.9h472.5c6.6 0 11.9 5.3 11.9 11.9v348.4c0 6.6-5.3 11.9-11.9 11.9zM25.8 416.3h448.7V91.7H25.8v324.6z"/><path d="M411.9 231.7h-99.2c-5.9.1-11-4.1-12.1-9.9-1.1-6.5 3.3-12.6 9.8-13.7.7-.1 1.3-.2 2-.2h99.2c5.9-.1 11 4.1 12.1 9.9 1.1 6.5-3.3 12.6-9.8 13.7-.7.1-1.4.2-2 .2zM411.9 307.1h-99.2c-5.9.1-11-4.1-12.1-9.9-1.1-6.5 3.3-12.6 9.8-13.7.7-.1 1.3-.2 2-.2h99.2c5.9-.1 11 4.1 12.1 9.9 1.1 6.5-3.3 12.6-9.8 13.7-.7.1-1.4.2-2 .2zM237.7 339.9H88.4c-6 0-10.9-4.9-10.9-10.9 0-33.9 20-64.6 51-78.3-18.6-19.1-18.3-49.6.8-68.2s49.6-18.3 68.2.8c18.3 18.7 18.3 48.7 0 67.4 31 13.7 51 44.4 51 78.3.1 6-4.8 10.9-10.8 10.9zM100.3 318h125.6c-6-34.7-39.1-57.9-73.7-51.8-26.6 4.6-47.3 25.3-51.9 51.8zm62.8-127.4c-14.6 0-26.4 11.8-26.4 26.4s11.8 26.4 26.4 26.4 26.4-11.8 26.4-26.4c-.1-14.5-11.9-26.4-26.4-26.4z"/></svg>