<svg xmlns="http://www.w3.org/2000/svg" viewBox="0 0 500 500" style="enable-background:new 0 0 500 500" xml:space="preserve"><path d="M268 208.4c0-10.8-8-19.6-18-19.6s-18 8.6-18 19.6v173.1c0 10.8 8 19.6 18 19.6s18-8.6 18-19.6V208.4zM271.1 123.9c0-12-9.7-21.8-21.7-21.8s-21.8 9.7-21.8 21.7 9.7 21.8 21.8 21.8c12 0 21.7-9.7 21.8-21.6-.1 0-.1 0-.1-.1z"/><path d="M249.4 26.3c90.8 0 174.3 56.8 207.8 141.1 34.9 87.9 9.2 190.7-62.5 252.2-72.9 62.5-181.2 70.9-262.9 20.3C53 391.2 12 296.2 30.4 205.4c20.7-103 114-179 219-179.1m0-23.9C145.7 2.3 50.5 69.5 16 167.4c-34.1 96.4-3.8 206.6 74.6 272.3C171 507 289 515.9 378.5 461c86.9-53.2 133-157.2 114.1-257.3C470.8 88.3 366.8 2.3 249.4 2.4z"/></svg>