<svg version="1.1" id="Integrations_svg__Layer_1" xmlns="http://www.w3.org/2000/svg" x="0" y="0" viewBox="0 0 500 500" style="enable-background:new 0 0 500 500" xml:space="preserve"><path d="M472 445.5V49.9c-.1-6 4.1-11.1 10-12.2 6.5-1.1 12.7 3.3 13.8 9.8.1.7.2 1.3.2 2v396.3c0 6.6-5.4 12-12 12-.7 0-1.3-.1-2-.2-5.9-.9-10.1-6.1-10-12.1z"/><path class="Integrations_svg__st0" d="M408.1 231.1H121.2c-6.5-26.5-30.3-45-57.5-45-32.6 0-59.1 26.3-59.1 58.7s26.5 58.6 59.1 58.6c28.5.1 53-20.2 58.2-48.3h286.6c6.6 0 12-5.3 12.1-11.9 0-.4 0-.8-.1-1.2-.7-6.3-6.1-11-12.4-10.9zM63.6 279.7c-19.4 0-35.1-15.5-35.1-34.7s15.8-34.6 35.1-34.6 35.1 15.5 35.1 34.6-15.7 34.7-35.1 34.7zM405.6 84.1H237.3c-6.3-26.7-30.2-45.5-57.6-45.5-32.6 0-59.1 26.3-59.1 58.7s26.5 58.7 59.1 58.7c28.3 0 52.7-20 58.1-47.8H406c6.6 0 12-5.4 12-12 0-.7-.1-1.3-.2-2-1-5.9-6.2-10.2-12.2-10.1zm-226 47.8c-19.4 0-35.1-15.6-35.1-34.7s15.8-34.7 35.1-34.7 35.1 15.5 35.1 34.7-15.6 34.7-35.1 34.7zM408 383.1H297.9c-7.6-24.9-30.6-42-56.7-41.9-32.6 0-59.1 26.3-59.1 58.7s26.5 58.7 59.1 58.7c29.7.1 54.8-21.9 58.7-51.4H408c6.6 0 12-5.4 12-12s-5.4-12.1-12-12.1zm-166.8 51.4c-19.4 0-35.1-15.5-35.1-34.7s15.8-34.7 35.1-34.7 35.1 15.5 35.1 34.7-15.7 34.7-35.1 34.7z"/></svg>