<svg xmlns="http://www.w3.org/2000/svg" viewBox="0 0 500 500" style="enable-background:new 0 0 500 500" xml:space="preserve"><path d="M408.6 260.6h-250c-7 0-12.6-5.7-12.6-12.6 0-7 5.7-12.7 12.6-12.7h250c7 0 12.6 5.7 12.6 12.7.1 6.9-5.6 12.6-12.6 12.6zM408.6 385.5h-62.1c-7 0-12.6-5.7-12.6-12.7s5.7-12.6 12.6-12.6h62.1c7 0 12.7 5.7 12.7 12.6 0 7-5.6 12.7-12.7 12.7.1 0 0 0 0 0zM408.6 135.7H281.9c-7 0-12.6-5.7-12.6-12.7s5.7-12.7 12.6-12.7h126.7c7 0 12.6 5.7 12.6 12.7.1 7.1-5.6 12.7-12.6 12.7zM59.1 298.3c-28.6.2-52-22.8-52.2-51.4-.2-28.6 22.8-52 51.4-52.2s52 22.8 52.2 51.4v.4c.1 28.5-22.9 51.7-51.4 51.8zm0-78.3c-14.6-.2-26.7 11.5-26.9 26.1s11.5 26.7 26.1 26.9 26.7-11.5 26.9-26.1v-.4c.2-14.5-11.5-26.4-26.1-26.5zM247.5 423.2c-28.6.2-52-22.8-52.2-51.5s22.8-52 51.5-52.2 52 22.8 52.2 51.5v.4c.1 28.5-23 51.7-51.5 51.8zm0-78.3c-14.6-.2-26.7 11.5-26.9 26.1s11.5 26.7 26.1 26.9 26.7-11.5 26.9-26.1v-.4c.2-14.5-11.5-26.4-26.1-26.5zM181.6 173.4c-28.6.2-52-22.8-52.2-51.4s22.8-52 51.4-52.2 52 22.8 52.2 51.4v.4c.1 28.5-22.9 51.7-51.4 51.8zm0-78.3c-14.6-.2-26.7 11.5-26.9 26.1s11.5 26.7 26.1 26.9 26.7-11.5 26.9-26.1v-.4c.2-14.5-11.5-26.4-26.1-26.5zM473.2 417.2c-7.9 0-14.4-6.4-14.4-14.4V89.1c-.2-7.9 6.1-14.5 14-14.8s14.5 6.1 14.8 14v314.5c0 7.9-6.4 14.4-14.4 14.4z"/></svg>