<svg xmlns="http://www.w3.org/2000/svg" viewBox="0 0 500 500" style="enable-background:new 0 0 500 500" xml:space="preserve"><path d="M452.3 66c-23.3.2-42.1 19.3-41.9 42.6.1 12.6 5.9 24.6 15.7 32.5l-42.6 126.7-49-90.4c-3.1-5.8-10.4-8-16.3-4.9-2.7 1.5-4.8 4-5.7 6.9L246 387.2l-63.8-152.8c-2.5-6.1-9.6-9-15.7-6.5-2.8 1.2-5.1 3.3-6.3 6.1l-48.5 106-45.4-68c-3.7-5.5-11.1-7-16.6-3.3-1.5 1-2.8 2.4-3.8 4L7.7 339.6c-3.3 5.8-1.3 13.1 4.5 16.4s13.1 1.3 16.4-4.5l28.6-50 46.6 69.8c3.7 5.5 11.1 7 16.6 3.3 1.9-1.2 3.3-3 4.3-5l45.9-100.5 65.9 157.5c1.9 4.4 6.2 7.3 11 7.4h.5c5-.2 9.4-3.5 10.9-8.3l67.9-212.1 48.7 89.9c3.1 5.9 10.4 8.1 16.2 5 2.7-1.5 4.8-3.9 5.8-6.9l50.9-151.3c1.3.1 2.6.2 4 .2 23.3-.4 41.9-19.6 41.6-42.9-.5-22.8-18.9-41.2-41.7-41.6zm4.1 60c-1.4.3-2.8.5-4.1.5-7.5 0-14.2-4.7-16.9-11.8-.8-2.1-1.2-4.3-1.2-6.5.2-9.9 8.3-17.9 18.3-17.7s17.9 8.3 17.7 18.3c-.1 8.2-5.8 15.3-13.8 17.2z"/></svg>