<svg xmlns="http://www.w3.org/2000/svg" viewBox="0 0 500 500" style="enable-background:new 0 0 500 500" xml:space="preserve"><path d="M362.7 259h-226c-6 .1-11.1-4.1-12.2-10-1.1-6.5 3.3-12.7 9.8-13.8.7-.1 1.3-.2 2-.2h226c6-.1 11.1 4.1 12.2 10 1.1 6.5-3.3 12.7-9.8 13.8-.6.1-1.3.2-2 .2z"/><path d="M199 340H13c-6.6 0-12-5.4-12-12L.8 164.3c0-3.2 1.3-6.2 3.5-8.5 2.3-2.2 5.3-3.6 8.5-3.8l186.2 1h.5c5.7-.1 10.7 4 11.8 9.6 1.2 7.2-4.6 13.4-11.8 13.4l-174.5.3V316h174c6.7.3 11.9 5.7 12 12.4.1 6.3-5 11.6-11.3 11.6h-.7zM301 341c-4.9 0-9.3-3-11.1-7.5-3.3-8.9 2.9-17.5 11.1-17.5l174-.4V176H301c-6.6 0-12-5.4-12-12.1 0-6.6 5.3-11.9 11.9-11.9h186.5c3.2.2 6.2 1.6 8.5 3.8 2.2 2.3 3.1 8.5 3.1 8.5V328s-5.4 12-12 12l-186 1z"/></svg>