<svg xmlns="http://www.w3.org/2000/svg" viewBox="0 0 500 500" style="enable-background:new 0 0 500 500" xml:space="preserve"><path d="M282.8 308.6c1.2 15.1-7.7 29.1-21.8 34.5v54.4c.1 6.3-4.6 11.6-10.9 12.3-6.6.6-12.4-4.2-13-10.8 0-.4-.1-.8-.1-1.2v-54.7c-17.5-6.6-26.3-26.2-19.7-43.7s26.2-26.3 43.7-19.7c12.2 4.6 20.7 15.9 21.8 28.9z"/><path d="M422 177h-62v-66.2C360 51.4 310.2 3.1 249 3.1S138 51.4 138 110.8V177H76c-6.6 0-12 5.4-12 12v296c0 6.6 5.4 12 12 12l346-.1c6.6 0 12-5.4 12-12V189c0-6.6-5.4-12-12-12zm-260-66.2c0-46.1 39-83.6 87-83.6s87 37.5 87 83.6V177H162v-66.2zM410 473l-322 .1V201h322v272z"/></svg>