<svg xmlns="http://www.w3.org/2000/svg" viewBox="0 0 500 500" style="enable-background:new 0 0 500 500" xml:space="preserve"><path d="M348 268.4c0 5.8-4.7 10.5-10.5 10.5h-64.4c-5.3 0-9.7-3.9-10.4-9.1l-11.4-81.7-23 210.2c-.6 4.9-4.6 8.9-9.6 9.3h-.9c-4.7 0-8.8-3.1-10.1-7.7l-34.2-121.8-33.7 64.1c-2 3.9-6.3 6.2-10.6 5.6-4.3-.5-7.9-3.7-9-7.9l-16.4-65.6h-79c-5.8 0-10.5-4.7-10.5-10.5s4.7-10.5 10.5-10.5h87.4c4.8 0 9.1 3.3 10.2 8l11.7 46.9 33.2-63c2-3.8 6.1-6.1 10.4-5.6 4.3.5 7.8 3.5 9.1 7.6l26.7 95 26.3-240.5c.6-5.3 5-9.3 10.3-9.3 5.9.5 9.8 3.9 10.6 9.1L282.4 258h55.2c5.7-.1 10.4 4.6 10.4 10.4zm55.6-10.5c5.8 0 10.5 4.7 10.5 10.5s-4.7 10.5-10.5 10.5h-33.3c-5.8 0-10.5-4.7-10.5-10.5s4.7-10.5 10.5-10.5h33.3zm71.7 0c5.8 0 10.5 4.7 10.5 10.5s-4.8 10.5-10.5 10.5h-35.4c-5.8 0-10.5-4.7-10.5-10.5s4.7-10.5 10.5-10.5h35.4z"/></svg>