<svg xmlns="http://www.w3.org/2000/svg" viewBox="0 0 500 500" style="enable-background:new 0 0 500 500" xml:space="preserve"><path d="M418.7 169.1V83.8c0-6.6-5.3-12-12-12-1.7 0-3.4.3-4.9 1l-214.7 95.4H93.3C46.7 168.2 9 206 9 252.5s37.8 84.3 84.3 84.3h27.2v96.5c0 6.6 5.4 12 12 12s12-5.4 12-12v-96.5h42.7l214.7 95.4c1.5.7 3.2 1 4.9 1 6.6 0 12-5.4 12-12V336c46.1-6.6 78.2-49.3 71.6-95.4-5.3-37.1-34.5-66.3-71.7-71.5zm-241 143.8H93.3c-33.3 0-60.3-27-60.4-60.3s27-60.3 60.3-60.4h84.5v120.7zm217 90-193-85.8V188l193-85.8v300.7zm24-91.2V193.4c32.7 6.6 53.8 38.5 47.1 71.1-4.7 23.8-23.3 42.4-47.1 47.2z"/></svg>