<svg xmlns="http://www.w3.org/2000/svg" viewBox="0 0 500 500" style="enable-background:new 0 0 500 500" xml:space="preserve"><path d="M156.8 477.3c-6.1 0-11.4-4.2-12.7-10.2l-29.3-131.9-14.7 32.1c-2.1 4.6-6.7 7.6-11.8 7.6h-.1c-5.1 0-9.7-3-11.8-7.7l-26.7-59.6h-27c-7.2 0-13-5.8-13-13s5.8-13 13-13h35.4c5.1 0 9.8 3 11.9 7.7l18.3 41.1 18.8-41.2c3-6.5 10.7-9.4 17.2-6.4 3.7 1.7 6.4 5 7.3 9L155 396.1l60.3-362.7c1-6.2 6.4-10.8 12.7-10.9h.1c6.3 0 11.7 4.5 12.8 10.8l44.3 252.6H320c7.2 0 13 5.8 13 13s-5.8 13-13 13h-45.7c-6.3 0-11.7-4.5-12.8-10.8l-33-188.4-58.8 353.6c-1 6.1-6.2 10.7-12.5 10.9l-.4.1zM474.5 312h-22.2c-7.2 0-13-5.8-13-13s5.8-13 13-13h22.2c7.2 0 13 5.8 13 13s-5.8 13-13 13zm-77.8 0h-22.2c-7.2 0-13-5.8-13-13s5.8-13 13-13h22.2c7.2 0 13 5.8 13 13s-5.9 13-13 13z"/></svg>