<svg xmlns="http://www.w3.org/2000/svg" viewBox="0 0 500 500" style="enable-background:new 0 0 500 500" xml:space="preserve"><path d="M175.2 388.1c-5.5 0-10.3-3.8-11.7-9.1l-29.9-122.9H126l-24 45.1c-3.1 5.8-10.4 8.1-16.2 5-2.3-1.2-4.2-3.2-5.3-5.6l-20.3-44.5H15.6c-6 .1-11.1-4.1-12.2-10-1.1-6.5 3.3-12.7 9.8-13.8.7-.1 1.3-.2 2-.2H68c4.7 0 9 2.7 10.9 7l13.4 29.3 16-30c2.1-3.9 6.2-6.4 10.6-6.4H143c5.5 0 10.3 3.8 11.6 9.1l19.9 81.6 58.8-268.3c1.2-5.5 6-9.4 11.7-9.4h.1c5.7 0 10.5 4 11.7 9.6L293.2 232h33.1c6-.1 11.1 4.1 12.2 10 1.1 6.5-3.3 12.7-9.8 13.8-.7.1-1.3.2-2 .2h-43.2c-5.7 0-10.6-4-11.7-9.6l-27-131.6-57.7 263.8c-1.2 5.4-6 9.4-11.6 9.4l-.3.1zM492.4 246.1c-1.1 5.8-6.2 10.1-12.1 10h-31.7c-6.6 0-12-5.4-12-12 0-.7.1-1.3.2-2 1.1-5.9 6.2-10.1 12.2-10h31.7c6.6 0 12 5.4 12 12-.1.7-.2 1.4-.3 2zm-77 0c-1.1 5.8-6.2 10.1-12.1 10h-31.7c-6.6 0-12-5.4-12-12 0-.7.1-1.3.2-2 1.1-5.9 6.2-10.1 12.2-10h31.7c6.6 0 12 5.4 12 12-.1.7-.2 1.4-.3 2z"/></svg>