<svg id="Newtab_svg__Layer_1" data-name="Layer 1" xmlns="http://www.w3.org/2000/svg" viewBox="0 0 500 500"><defs></defs><path class="Newtab_svg__cls-2" d="M440.68 485.13H61a44.94 44.94 0 0 1-44.89-44.89V60.59A44.94 44.94 0 0 1 61 15.7h379.68a44.94 44.94 0 0 1 44.88 44.89v379.65a44.94 44.94 0 0 1-44.88 44.89zM61 41.7a18.91 18.91 0 0 0-18.86 18.89v379.65A18.91 18.91 0 0 0 61 459.13h379.68a18.9 18.9 0 0 0 18.88-18.89V60.59a18.91 18.91 0 0 0-18.88-18.89z" style="isolation:isolate"/><path class="Newtab_svg__cls-2" d="M351.68 163.31v137.74a13 13 0 0 1-26 0v-107.2L156.82 362.71a13 13 0 0 1-18.39-18.38l168-168H201a13 13 0 0 1 0-26h137.68a13 13 0 0 1 13 12.98z"/></svg>