<svg xmlns="http://www.w3.org/2000/svg" viewBox="0 0 500 500" style="enable-background:new 0 0 500 500" xml:space="preserve"><path d="M470 86v303H164.4c-5.4 0-10.8 1.3-15.7 3.7L31 451.1V86h439zm17-25H16.2C10.6 61 6 65.6 6 71.2v403.7c0 5.6 4.5 10.2 10.2 10.2 1.6 0 3.2-.4 4.6-1.1l139.1-69c1.4-.7 3-1.1 4.5-1.1h320.4c5.6 0 10.2-4.6 10.2-10.2V69c0-4.4-3.6-8-8-8z"/><path d="M387.6 197H114.8c-6.2.1-11.6-4.3-12.7-10.4-1.1-6.8 3.5-13.3 10.3-14.4.7-.1 1.4-.2 2-.2h272.8c6.2-.1 11.6 4.3 12.7 10.4 1.1 6.8-3.5 13.3-10.3 14.4-.7.1-1.4.2-2 .2zM387.6 302H114.8c-6.2.1-11.6-4.3-12.7-10.5-1.1-6.8 3.5-13.3 10.3-14.4.7-.1 1.4-.2 2-.2h272.8c6.2-.1 11.6 4.3 12.7 10.5 1.1 6.8-3.5 13.3-10.3 14.4-.7.1-1.4.2-2 .2z"/></svg>