<svg width="95" height="40" viewBox="0 0 95 40" fill="none" xmlns="http://www.w3.org/2000/svg">
<path d="M7.54431 10.5963C7.93264 14.4797 8.09853 17.4753 8.09853 24.1883V38.8901H0V0H10.1515L18.0841 15.3118C20.0254 19.0289 22.1337 23.3562 23.5757 27.2395H23.7979C23.354 21.8024 23.354 16.4215 23.354 12.316V0H31.3978V38.8901H21.4678L12.9247 22.4686C10.9835 18.6963 9.37444 14.8679 7.76596 10.5963H7.54431Z" fill="#121216"/>
<path d="M55.0735 29.0703C55.0735 22.9123 37.1552 23.7444 37.1552 11.4839C37.1552 5.04869 42.8135 0 50.8572 0C57.3479 0 61.397 2.99576 62.6733 4.65994L57.4028 10.9291C56.4603 9.7642 54.2409 7.3229 50.1363 7.3229C47.3625 7.3229 45.8096 8.87654 45.8096 10.818C45.8096 17.0871 63.6715 16.1439 63.6715 28.5161C63.6715 34.3413 58.8454 40 48.971 40C41.482 40 36.8227 36.6709 35.4912 35.1734L40.3174 28.1827C41.9815 29.8474 45.3651 32.8432 50.0808 32.8432C53.4644 32.8432 55.0735 31.1235 55.0735 29.0703Z" fill="#121216"/>
<path d="M69.9496 11.9568L66.6689 5.38076L74.0873 0.245117H82.2866V38.9617H74.1431V18.9324L74.4222 8.97894" fill="#121216"/>
<path d="M89.8615 29.9546C92.5134 29.9546 94.5137 31.9551 94.5137 34.6539C94.5137 37.12 92.5134 39.1205 89.8615 39.1205C87.3489 39.1205 85.3486 37.12 85.3486 34.6539C85.3486 31.9551 87.3489 29.9546 89.8615 29.9546Z" fill="#E6126A"/>
</svg>
