<svg width="100" height="32" viewBox="0 0 100 32" fill="none" xmlns="http://www.w3.org/2000/svg">
<path d="M22.555 12.4563C22.356 12.068 22.0973 11.7573 21.759 11.4854C21.4207 11.233 21.1023 11.0388 20.7043 10.9806C20.3063 10.8447 19.9879 10.7864 19.6496 10.7864H13.9779V12.9806H19.6496C19.9083 12.9806 20.167 13.0388 20.366 13.233C20.565 13.4272 20.6247 13.6214 20.6247 13.932V14.9029H16.2864C15.6894 14.9029 15.172 15.0388 14.7739 15.233C14.3759 15.4272 14.0575 15.6796 13.7789 16.0097C13.5202 16.3398 13.3212 16.6505 13.2615 17.0388C13.1222 17.4272 13.0625 17.7379 13.0625 18.068C13.0625 18.6505 13.2018 19.1553 13.4008 19.5437C13.5998 19.932 13.8585 20.2427 14.1968 20.5146C14.5351 20.7864 14.8535 20.9612 15.2516 21.0194C15.6496 21.1553 15.968 21.2136 16.3063 21.2136H19.6098C20.2068 21.2136 20.7242 21.0777 21.1222 20.8835C21.5202 20.6893 21.8386 20.4369 22.1172 20.1068C22.3759 19.7767 22.5749 19.466 22.6346 19.0777C22.7739 18.6893 22.8336 18.3786 22.8336 18.0485V13.932C22.8734 13.3495 22.8137 12.8447 22.555 12.4563ZM20.6446 18.0485C20.6446 18.301 20.5849 18.5534 20.3859 18.7476C20.1869 18.9418 19.9879 19 19.6695 19H16.3461C16.0874 19 15.8287 18.9418 15.6297 18.7476C15.4307 18.5534 15.2914 18.3592 15.2914 18.0485C15.2914 17.7961 15.3511 17.5437 15.5501 17.3495C15.7491 17.1553 15.9481 17.0971 16.2665 17.0971H20.6247V18.0485H20.6446Z" fill="#47BA04"/>
<path d="M41.8023 17.0777C42.3993 17.0777 42.9167 16.9417 43.3147 16.7476C43.7128 16.5534 44.0312 16.301 44.3098 15.9709C44.5685 15.6408 44.7675 15.3301 44.9068 14.9417C45.0461 14.5534 45.1058 14.2427 45.1058 13.9126C45.1058 13.3301 44.9665 12.8252 44.7675 12.4369C44.5685 12.0485 44.3098 11.7379 43.9715 11.466C43.6332 11.2136 43.3147 11.0194 42.9167 10.8835C42.5187 10.7476 42.2003 10.6893 41.862 10.6893H38.4988C37.9018 10.6893 37.3844 10.8252 36.9864 11.0194C36.5884 11.2136 36.2699 11.466 35.9913 11.7961C35.7326 12.1262 35.5336 12.4369 35.3943 12.8252C35.255 13.2136 35.1953 13.5243 35.1953 13.8544V18.0291C35.1953 18.6116 35.3346 19.1165 35.5336 19.5049C35.7326 19.8932 35.9913 20.2039 36.3296 20.4757C36.668 20.7282 36.9864 20.9223 37.3844 20.9806C37.7824 21.1165 38.1008 21.1748 38.4391 21.1748H44.7078V18.9806H38.4391C38.1804 18.9806 37.9217 18.9223 37.7227 18.7282C37.5237 18.534 37.464 18.3398 37.464 18.0291V17.0582C37.4441 17.0777 41.8023 17.0777 41.8023 17.0777ZM37.4441 13.932C37.4441 13.6796 37.5038 13.4272 37.7028 13.233C37.9018 13.0388 38.1008 12.9806 38.4192 12.9806H41.7824C42.0411 12.9806 42.2998 13.0388 42.4988 13.233C42.6978 13.4272 42.7575 13.6214 42.7575 13.932C42.7575 14.1845 42.6978 14.4369 42.4988 14.6311C42.2998 14.8252 42.1008 14.8835 41.7824 14.8835H37.4242V13.932H37.4441Z" fill="#47BA04"/>
<path d="M61.3021 21.1942H57.7399C56.4862 21.1942 55.6901 20.6893 55.2921 20.301C54.4961 19.466 54.4961 18.3786 54.4961 18.0485V13.8738C54.4961 12.6505 55.0135 11.9515 55.4115 11.5631C56.2673 10.7864 57.3817 10.7282 57.72 10.7864H62.1976V7H64.526V18.1262C64.526 19.2913 64.0683 19.9903 63.6703 20.3786C62.7549 21.1942 61.5608 21.1942 61.3021 21.1942ZM56.8245 18.1845C56.8245 18.3204 56.8245 18.6311 57.0235 18.8252C57.2225 19.0194 57.4812 19.0194 57.7399 19.0194H61.3021C62.2175 19.0194 62.2175 18.3786 62.2175 18.1262V12.9806H57.6802C57.5409 12.9806 57.2225 13.0388 57.0235 13.1748C56.8842 13.3107 56.8245 13.5631 56.8245 13.8738V18.1845Z" fill="#47BA04"/>
<path d="M4.28856 25H2V13.8155C2 12.6505 2.45771 11.9515 2.85572 11.5631C3.77115 10.7282 4.96518 10.6699 5.16418 10.6699H8.72637C9.9801 10.6699 10.7761 11.1748 11.1741 11.5631C11.9702 12.3981 11.9702 13.4854 11.9702 13.8155V17.9903C11.9702 19.2136 11.4527 19.9126 11.0547 20.301C10.199 21.0777 9.00498 21.1359 8.74627 21.0777H4.28856V25ZM8.84578 19.0194C8.98508 19.0194 9.30349 18.9612 9.50249 18.8252C9.6418 18.6893 9.7015 18.4369 9.7015 18.1262V13.8155C9.7015 13.6796 9.7015 13.3689 9.50249 13.1748C9.30349 12.9806 9.04478 12.9806 8.78607 12.9806H5.14428C4.22886 12.9806 4.22886 13.6214 4.22886 13.8738V19.0194H8.84578Z" fill="#47BA04"/>
<path d="M48.2499 21.1942H45.9414V13.8544C45.9414 12.6893 46.3991 11.9903 46.7971 11.6019C47.7125 10.767 48.9066 10.7087 49.1056 10.7087H53.5235V12.9612H49.1056C48.1902 12.9612 48.1902 13.6019 48.1902 13.8544V21.1942H48.2499Z" fill="#47BA04"/>
<path d="M68.8868 21.2718C68.6878 21.2718 67.4938 21.2136 66.5784 20.3786C66.1804 19.9903 65.7227 19.2913 65.7227 18.1845V10.7281H68.0311V18.1262C68.0311 18.6311 68.2301 18.767 68.3694 18.9029C68.5684 19.0388 68.8271 19.0388 68.9664 19.0388H73.4441V10.7476H75.7525V21.233L68.8868 21.2718Z" fill="#47BA04"/>
<path d="M30.716 24.8641H25.3229V22.6117H30.7359C31.3329 22.6117 31.5319 22.4175 31.6513 22.165C31.7707 21.9126 31.8503 21.6602 31.8503 21.5243V21.0777H27.5717C27.313 21.0777 26.0593 21.0777 25.1239 20.2427C24.6662 19.8544 24.1289 19.0777 24.1289 17.7961V13.932C24.1289 13.6796 24.1289 12.4563 24.9846 11.5437C25.3826 11.0971 26.1787 10.5728 27.4921 10.5728H30.716C32.0294 10.5728 34.0792 11.466 34.0792 13.8544V21.5049C34.0195 22.9417 33.104 24.8641 30.716 24.8641ZM26.3777 13.932V17.8544C26.3777 18.2427 26.4374 18.4951 26.6364 18.6893C26.8951 18.9417 27.3528 18.9417 27.3528 18.9417H27.4125H31.7707V13.9903C31.7707 13.4078 31.512 13.2136 31.313 13.0971C31.0543 12.9612 30.716 12.9612 30.716 12.9612H27.4921C27.0941 12.9612 26.8354 13.0194 26.6364 13.2136C26.3777 13.4272 26.3777 13.7961 26.3777 13.932Z" fill="#47BA04"/>
<path d="M94.5753 24.9223H89.1624V22.6699H94.5753C95.1723 22.6699 95.3713 22.4757 95.431 22.2233C95.5703 21.9709 95.63 21.7185 95.63 21.5825V21.1942H91.3514C90.038 21.1942 89.242 20.6893 88.844 20.2233C87.9883 19.3301 87.9883 18.1651 87.9883 17.835V10.6893H90.2967V17.9515C90.2967 18.0874 90.3564 18.4563 90.5554 18.7282C90.6947 18.9223 91.0131 18.9806 91.4111 18.9806H95.6897V10.6893H97.9982V21.6214C97.9385 23 97.0231 24.9223 94.5753 24.9223Z" fill="#47BA04"/>
<path d="M82.9145 21.2719H80.606V12.9612H76.7852V10.7088H80.606V7.89322H82.9145V10.7088H86.795V12.9612H82.9145V21.2719Z" fill="#47BA04"/>
</svg>
