<svg width="148" height="148" viewBox="0 0 148 148" fill="none" xmlns="http://www.w3.org/2000/svg">
<path d="M23.7991 72.8752L24.0063 72.816C25.5751 72.3424 27.1143 71.78 28.5943 71.1288C30.1039 70.5368 31.5543 69.708 32.8271 68.7016C34.1887 67.6064 35.2247 66.156 35.7871 64.4984C35.9055 64.232 35.9943 63.936 36.0535 63.64C33.9815 66.452 25.8415 66.748 25.8415 66.748L27.7655 64.972C22.1711 65.0016 16.6951 66.7776 12.1367 70.0336C15.2151 70.3592 18.1159 71.6616 20.4247 73.7336C21.5495 73.4376 22.6743 73.2008 23.7991 72.8752ZM36.5863 72.6088C31.4063 72.372 26.1967 73.0232 21.2239 74.5624C22.2599 75.6576 23.1479 76.9008 23.7991 78.2624C27.9431 75.9536 33.6263 73.0232 36.5863 72.6088ZM24.3319 79.4168C24.8055 80.66 25.1311 81.992 25.2495 83.324L32.4127 75.9536L24.3319 79.4168ZM28.0911 83.028V82.9392C28.0911 82.9096 28.0911 82.88 28.0615 82.8504C28.0319 82.8208 28.0319 82.8208 28.0023 82.8208H28.0615C28.0911 82.7912 28.1207 82.7616 28.1207 82.7024C28.1207 82.6432 28.0911 82.584 28.0319 82.5544C27.9727 82.5544 27.9431 82.5544 27.8839 82.5544H27.6767V83.1168H27.7951V82.9096H27.8839C27.9135 82.9096 27.9431 82.9096 27.9727 82.9096C28.0023 82.9392 28.0319 82.9688 28.0023 83.028V83.1168H28.1207L28.0911 83.028ZM27.7951 82.6136H27.8543C27.8839 82.6136 27.9431 82.6136 27.9727 82.6136C28.0023 82.6432 28.0023 82.6432 28.0023 82.6728C28.0023 82.7024 27.9727 82.732 27.9431 82.7616C27.9135 82.7616 27.8839 82.7616 27.8543 82.7616H27.7951V82.584V82.6136Z" fill="#282828"/>
<path d="M28.2373 82.436C28.1485 82.3472 28.0301 82.288 27.8821 82.288C27.7341 82.288 27.6157 82.3472 27.5269 82.436C27.4381 82.5248 27.3789 82.6728 27.3789 82.7912C27.3789 82.9392 27.4381 83.0576 27.5269 83.1464C27.6157 83.2352 27.7341 83.2944 27.8821 83.2944C28.0301 83.2944 28.1485 83.2352 28.2373 83.1464C28.3261 83.0576 28.3853 82.9392 28.3853 82.7912C28.3853 82.6432 28.3261 82.5544 28.2373 82.436ZM27.8821 83.2352C27.7637 83.2352 27.6749 83.2056 27.5861 83.1168C27.4381 82.9392 27.4381 82.7024 27.5861 82.5248C27.6749 82.436 27.7637 82.4064 27.8821 82.4064C28.0005 82.4064 28.0893 82.4656 28.1781 82.5248C28.3261 82.7024 28.3261 82.9392 28.1781 83.1168C28.0893 83.176 28.0005 83.2352 27.8821 83.2352Z" fill="#282828"/>
<path d="M80.186 76.22C79.002 76.22 77.9364 75.5984 77.3444 74.5624C76.7524 73.556 76.7524 72.2832 77.3444 71.2768C77.9364 70.2704 79.002 69.6192 80.186 69.6192C81.9916 69.6192 83.4716 71.0992 83.4716 72.9048C83.4716 74.74 81.9916 76.22 80.186 76.22ZM80.186 66.0376C77.3444 66.0672 74.8284 67.8432 73.8516 70.5072C72.8748 73.1712 73.6444 76.1608 75.7756 78.0256C77.9068 79.8904 80.9852 80.2456 83.5012 78.9136V79.7424C83.5012 81.548 82.0212 83.028 80.2156 83.028C79.2388 83.028 78.4396 83.8272 78.4396 84.8336C78.4396 85.84 79.2388 86.6392 80.2156 86.6392C84.0044 86.6392 87.0532 83.5608 87.0532 79.772V72.9048C87.0532 69.116 83.9748 66.0672 80.2156 66.0376H80.186ZM46.3532 76.22C44.5476 76.22 43.0676 74.74 43.0676 72.9344C43.0676 71.1288 44.5476 69.6488 46.3532 69.6488C48.1588 69.6488 49.6388 71.1288 49.6388 72.9344C49.6388 74.74 48.1588 76.22 46.3532 76.22ZM46.3532 66.0376C42.5644 66.0376 39.5156 69.116 39.5156 72.9048V82.7024C39.5156 83.3536 39.8708 83.9456 40.4036 84.2416C40.966 84.5672 41.6468 84.5672 42.1796 84.2416C42.742 83.916 43.0676 83.324 43.0676 82.7024V78.9432C44.074 79.5056 45.1988 79.772 46.3532 79.772C50.142 79.772 53.2204 76.6936 53.2204 72.9048C53.2204 69.116 50.142 66.0376 46.3532 66.0376ZM65.5932 66.0376C61.8044 66.0376 58.7556 69.116 58.7556 72.9048V77.996C58.7556 78.9728 59.5548 79.8016 60.5316 79.8016C61.5084 79.8016 62.3076 79.0024 62.3076 77.996V72.9344C62.3076 71.1288 63.7876 69.6488 65.5932 69.6488C67.3988 69.6488 68.8788 71.1288 68.8788 72.9344V78.0256C68.8492 78.6768 69.1748 79.328 69.7372 79.6536C70.2996 80.0088 71.01 80.0088 71.5724 79.6536C72.1348 79.2984 72.4604 78.6768 72.4308 78.0256V72.9344C72.4604 69.1456 69.4116 66.0968 65.5932 66.0376ZM109.342 76.1608C107.536 76.1608 106.056 74.6808 106.056 72.8752C106.056 71.0696 107.536 69.5896 109.342 69.5896C111.148 69.5896 112.628 71.0696 112.628 72.8752C112.598 74.6808 111.148 76.1608 109.342 76.1608ZM109.342 65.9784C105.553 65.9784 102.504 69.0568 102.504 72.8456C102.504 76.6344 105.583 79.7128 109.342 79.7128C113.131 79.7128 116.18 76.6344 116.18 72.8456C116.15 69.0568 113.101 66.008 109.342 65.9784ZM94.7492 76.22C92.9436 76.22 91.4636 74.74 91.4636 72.9344C91.4636 71.1288 92.9436 69.6488 94.7492 69.6488C96.5548 69.6488 98.0348 71.1288 98.0348 72.9344C98.0348 74.74 96.5548 76.22 94.7492 76.22ZM99.8108 61.3312C98.834 61.3312 98.0348 62.1304 98.0348 63.1368V66.896C95.3412 65.416 91.9668 65.9488 89.8356 68.1688C87.7044 70.3888 87.29 73.7632 88.8884 76.4272C90.4572 79.0912 93.5948 80.364 96.5844 79.5352C99.5444 78.736 101.616 76.0128 101.616 72.9344V63.1368C101.616 62.1304 100.817 61.3312 99.8108 61.3312ZM55.8548 66.0376C54.878 66.0376 54.0788 66.8368 54.0788 67.8432V77.996C54.0788 78.9728 54.878 79.8016 55.8548 79.8016C56.8316 79.8016 57.6308 79.0024 57.6308 77.996V67.8432C57.6308 66.8664 56.8316 66.0376 55.8548 66.0376ZM54.0492 63.1368C54.0492 64.1136 54.8484 64.9424 55.8252 64.9424C56.802 64.9424 57.6012 64.1432 57.6012 63.1368C57.6012 62.16 56.802 61.3312 55.8252 61.3312C54.8484 61.3312 54.0492 62.16 54.0492 63.1368ZM126.421 79.7424C126.895 79.7424 127.339 79.5648 127.694 79.2096C128.02 78.884 128.227 78.4104 128.227 77.9368V70.3296C128.227 69.9152 128.552 69.5896 128.967 69.5896C130.772 69.5896 132.252 71.0696 132.252 72.8752V77.9368C132.252 78.9136 133.052 79.7424 134.028 79.7424C135.005 79.7424 135.804 78.9432 135.804 77.9368V72.8752C135.804 69.0864 132.726 66.0376 128.967 66.008C128.108 66.008 127.25 66.1856 126.421 66.5112C125.622 66.1856 124.764 66.008 123.876 66.008C120.087 66.0376 117.038 69.0864 117.038 72.8752V77.9368C117.038 78.9136 117.837 79.7424 118.814 79.7424C119.791 79.7424 120.59 78.9432 120.59 77.9368V72.8752C120.59 71.0696 122.07 69.5896 123.876 69.5896C124.29 69.5896 124.616 69.9152 124.616 70.3296V77.9368C124.616 78.4104 124.793 78.884 125.148 79.2096C125.533 79.5352 125.977 79.7128 126.421 79.7424Z" fill="#282828"/>
</svg>
