<svg version="1.1" id="Playcircle_svg__Layer_1" xmlns="http://www.w3.org/2000/svg" x="0" y="0" viewBox="0 0 500 500" style="enable-background:new 0 0 500 500" xml:space="preserve"><path class="Playcircle_svg__st0" d="M250 26.5c93.3 0 178.8 60.1 210.4 147.9 31.9 88.6 3.3 190.2-69.9 249.5-72.1 58.4-175.9 65.5-255.4 17.9C56 394.5 13.4 300.2 30.1 209.5c19.4-104.7 113.4-183 219.9-183m0-24C146.5 2.5 51.5 69.4 16.8 167c-34.4 96.5-4.1 207 74.3 272.8 80.3 67.3 197.9 76.3 287.4 21.8 87.2-53.1 133.6-157.1 114.8-257.5C471.6 88.6 367.5 2.5 250 2.5z"/><path id="Playcircle_svg__SVGID_1_" class="Playcircle_svg__st0" d="M216.4 339.7V159.9l112.4 89.9z"/><path id="Playcircle_svg__SVGID_2_" class="Playcircle_svg__st0" d="M216.4 339.7V159.9l112.4 89.9z"/></svg>