<svg id="PulsarNav_svg__Layer_1" data-name="Layer 1" xmlns="http://www.w3.org/2000/svg" viewBox="0 0 500 500"><defs><style></style></defs><path d="M444.15 89.52a72.64 72.64 0 0 0-90.38 91.73l-100.15 50.08v-101c0-53.78-45.76-97.54-102-97.54s-102 43.76-102 97.54v72.57a12 12 0 0 0 24 0v-72.54c0-40.55 35-73.54 78-73.54s78 33 78 73.54v113l-95 47.49a72.63 72.63 0 0 0-91.79-20.06A72.62 72.62 0 1 0 111 399a72.69 72.69 0 0 0 34.87-87l83.78-41.89v93.31c0 53.78 45.77 97.53 102 97.53s102-43.75 102-97.48l.35-75a12 12 0 0 0-11.94-12.06H422a12 12 0 0 0-12 11.94l-.35 75.09c0 40.55-35 73.53-78 73.53s-78-33-78-73.53V258.16l111.2-55.59a72.11 72.11 0 0 0 36.82 25.83 72.62 72.62 0 0 0 42.48-138.88zM123.39 349.13a48.62 48.62 0 1 1-3.55-37.05 48.34 48.34 0 0 1 3.54 37.05zm346-175.94a48.7 48.7 0 1 1-32.25-60.72 48.29 48.29 0 0 1 32.24 60.72z"/></svg>