<svg xmlns="http://www.w3.org/2000/svg" viewBox="0 0 500 500" style="enable-background:new 0 0 500 500" xml:space="preserve"><path d="M454.4 80.1c-23.5 0-42.6 19-42.6 42.5 0 8.9 2.8 17.6 8 24.9l-86.3 128c-15.1-4.7-31.6-.6-42.8 10.6l-71.5-55.8c1.4-4.3 2.1-8.7 2.1-13.2 0-23.5-19-42.6-42.5-42.6s-42.6 19-42.6 42.5c0 8.5 2.5 16.8 7.2 23.8L60.7 347.3c-22.3-7.7-46.6 4.1-54.3 26.4s4.1 46.6 26.4 54.3c22.3 7.7 46.6-4.1 54.3-26.4 4.7-13.7 2.2-28.9-6.8-40.3l81.7-105c14.6 6.3 31.4 4 43.7-6.1l73.6 57.4c-.6 2.8-.9 5.7-.9 8.6 0 23.5 19 42.6 42.5 42.6s42.6-19 42.6-42.5c0-10-3.5-19.8-10-27.4l85.3-126.5c5 2 10.2 3 15.6 3 23.5 0 42.6-19.1 42.6-42.6s-19.1-42.6-42.6-42.7zM46.9 406.2c-.5 0-1 0-1.5-.1-9.1-.8-16.3-8-17-17.1v-1.4c0-9 6.5-16.7 15.3-18.3 1.1-.2 2.1-.3 3.2-.3 10.3 0 18.6 8.3 18.6 18.6s-8.3 18.5-18.6 18.6zm138.7-171.7c-2.1.8-4.4 1.3-6.7 1.3h-.9c-9.1-.4-16.6-7.4-17.6-16.5-.1-.7-.1-1.3-.1-2 0-10.3 8.4-18.6 18.6-18.5 8.6 0 16 5.9 18 14.2.3 1.4.5 2.8.5 4.3 0 7.6-4.7 14.4-11.8 17.2zM321 334.7c-2.5 0-4.9-.5-7.2-1.5-9.4-4-13.9-14.9-9.9-24.3 1.3-3.1 3.5-5.8 6.2-7.8 2.5-1.8 5.4-3 8.5-3.4.8-.1 1.6-.2 2.4-.2 8.2 0 15.4 5.4 17.8 13.2.5 1.7.8 3.5.8 5.3 0 10.4-8.3 18.7-18.6 18.7zm133.4-193.4h-1.3c-9.1-.7-16.4-7.9-17.2-17 0-.5-.1-1-.1-1.5 0-10.3 8.3-18.6 18.6-18.6s18.6 8.3 18.6 18.6c0 10.2-8.3 18.5-18.6 18.5z"/></svg>