<?xml version="1.0" encoding="utf-8"?>
<!-- Generator: Adobe Illustrator 21.0.0, SVG Export Plug-In . SVG Version: 6.00 Build 0)  -->
<svg version="1.1" id="Layer_1" xmlns="http://www.w3.org/2000/svg" xmlns:xlink="http://www.w3.org/1999/xlink" x="0px" y="0px"
	 viewBox="0 0 500 500" style="enable-background:new 0 0 500 500;" xml:space="preserve">
<path d="M90.6,225.9c-1.3-1.3-2.9-2.4-4.6-3.1c-1.7-0.7-3.6-1.1-5.4-1.1c-1.9,0-3.7,0.4-5.4,1.1
	c-1.7,0.7-3.3,1.8-4.6,3.1l-34.3,34.3l-22.2,22.2c-1.3,1.3-2.4,2.9-3.1,4.6c-0.7,1.7-1.1,3.6-1.1,5.4c0,1.9,0.4,3.7,1.1,5.4
	c0.7,1.7,1.8,3.3,3.1,4.6c2.7,2.6,6.2,4.1,10,4.1c1.9,0,3.7-0.4,5.4-1.1c1.7-0.7,3.3-1.8,4.6-3.1L67.5,269
	c3.5,33.6,16.2,65.8,36.9,92.8c24.6,32.1,59.1,55.1,98.1,65.6c39,10.5,80.4,7.7,117.7-7.7c37.3-15.5,68.5-42.8,88.7-77.8
	c1.8-3.2,2.3-7.1,1.4-10.7c-1-3.6-3.3-6.7-6.6-8.5c-3.2-1.9-7.1-2.4-10.7-1.4c-3.6,1-6.7,3.3-8.6,6.5c-13.3,23-32.2,42.1-54.8,55.7
	c-6.5,3.9-13.2,7.3-20.3,10.2c-31.6,13.1-66.6,15.4-99.6,6.5c-33-8.8-62.2-28.3-83-55.5c-16.4-21.4-26.9-46.6-30.6-73.1l30.8,30.8
	c1.3,1.3,2.9,2.4,4.6,3.1c1.7,0.7,3.6,1.1,5.4,1.1c1.9,0,3.7-0.4,5.4-1.1c1.7-0.7,3.3-1.8,4.6-3.1c1.3-1.3,2.4-2.9,3.1-4.6
	c0.7-1.7,1.1-3.6,1.1-5.4c0-1.9-0.4-3.7-1.1-5.4c-0.7-1.7-1.8-3.3-3.1-4.6L90.6,225.9z M431.2,232.4l34.7-34.7
	c1.3-1.3,2.9-2.4,4.6-3.1c1.7-0.7,3.6-1.1,5.4-1.1s3.7,0.4,5.4,1.1c1.7,0.7,3.3,1.8,4.6,3.1c1.3,1.3,2.4,2.9,3.1,4.6
	c0.7,1.7,1.1,3.6,1.1,5.4c0,1.9-0.4,3.7-1.1,5.4c-0.7,1.7-1.7,3.3-3.1,4.6l-17,17l-39.5,39.5c-1.3,1.3-2.9,2.4-4.6,3.1
	c-1.7,0.7-3.6,1.1-5.4,1.1c-1.9,0-3.7-0.4-5.4-1.1c-1.7-0.7-3.3-1.8-4.6-3.1l-56.5-56.5c-1.3-1.3-2.4-2.9-3.1-4.6
	c-0.7-1.7-1.1-3.6-1.1-5.4c0-1.9,0.4-3.7,1.1-5.4c0.7-1.7,1.8-3.3,3.1-4.6c1.3-1.3,2.9-2.4,4.6-3.1c1.7-0.7,3.6-1.1,5.4-1.1
	c1.9,0,3.7,0.4,5.4,1.1c1.7,0.7,3.3,1.8,4.6,3.1l29.2,29.2c-3.9-25.9-14.3-50.5-30.3-71.4c-20.8-27.1-50-46.6-83-55.5
	c-33-8.9-68.1-6.6-99.7,6.6c-31.6,13.1-58,36.3-75.1,65.9c-0.9,1.6-2.2,3-3.6,4.2c-1.5,1.1-3.2,2-5,2.5c-1.8,0.5-3.7,0.6-5.5,0.4
	c-1.8-0.2-3.6-0.8-5.2-1.8c-1.6-0.9-3-2.2-4.2-3.6c-1.1-1.5-2-3.2-2.4-5c-0.5-1.8-0.6-3.7-0.3-5.5c0.3-1.8,0.9-3.6,1.8-5.2
	c20.2-35,51.4-62.4,88.7-77.8C215.6,65,257,62.2,296,72.7c29.2,7.8,55.8,22.7,77.7,43.1c7.4,6.9,14.2,14.4,20.4,22.5
	C415.1,165.6,427.9,198.3,431.2,232.4z"/>
</svg>
