<svg xmlns="http://www.w3.org/2000/svg" viewBox="0 0 500 500" style="enable-background:new 0 0 500 500" xml:space="preserve"><path d="M490.7 473.8 338.6 321.6c-.2-.2-.4-.4-.6-.5 30.9-34.9 47.9-80 47.9-126.6C385.8 88.7 300.1 3 194.4 3S3 88.7 3 194.4s85.7 191.4 191.4 191.4c46.6.1 91.7-17 126.6-47.9.2.2.4.4.5.6l152.2 152.1c4.7 4.7 12.3 4.7 17 0s4.7-12.2 0-16.8zM194.4 361.9C102 361.9 27 287 27 194.5c0-44.4 17.6-87 49-118.4 65.4-65.4 171.4-65.4 236.8 0s65.4 171.4 0 236.8c-31.3 31.4-74 49.1-118.4 49z"/></svg>