<svg xmlns="http://www.w3.org/2000/svg" viewBox="0 0 500 500" style="enable-background:new 0 0 500 500" xml:space="preserve"><path d="M251 36c55.7 42.2 114.5 73.3 175.4 96.3-1 114.2-24.4 183.3-57.8 230.3-32.6 46-75.3 72.1-117.7 99.4-42.4-27.3-85.1-53.4-117.7-99.4-33.2-47-56.6-116.1-57.6-230.3 60.9-23 119.7-54.1 175.4-96.3m-1.6-26.9c-1.9.3-3.7 1-5.2 2.2-59.9 45.6-123.6 78.1-190 101.9-4.4 1.6-7.3 5.7-7.2 10.4 0 123.5 25.9 200.2 64.3 253.4s88.4 81.5 133.7 110.2c3.7 2.4 8.4 2.4 12.1 0 45.3-28.7 95.3-57.2 133.7-110.2S455 247.1 455 123.7c.1-4.7-2.8-8.8-7.2-10.4-66.4-23.9-130.1-56.4-190-101.9-2.4-1.9-5.4-2.7-8.4-2.3"/></svg>