<svg version="1.1" id="Show_svg__Layer_1" xmlns="http://www.w3.org/2000/svg" x="0" y="0" viewBox="0 0 500 500" style="enable-background:new 0 0 500 500" xml:space="preserve"><path class="Show_svg__st0" d="M250.6 397.8c-46.2.1-91.7-11.8-132-34.3-38.6-21.6-71-52.7-94.2-90.3-8.4-13.7-8.4-31 0-44.7 23.2-37.6 55.6-68.7 94.2-90.3 82.1-45.7 182-45.7 264.1 0 38.6 21.6 71 52.6 94.2 90.2 8.5 13.7 8.5 31.1 0 44.8-23.2 37.7-55.6 68.8-94.2 90.4-40.4 22.4-85.9 34.2-132.1 34.2zm.1-270c-42.1-.1-83.5 10.7-120.3 31.2-35 19.6-64.4 47.8-85.5 82-3.7 6-3.7 13.6 0 19.6 21 34.1 50.5 62.3 85.4 81.9 74.8 41.6 165.8 41.6 240.6 0 35-19.6 64.4-47.8 85.5-82 3.7-6.1 3.7-13.7 0-19.7-21.1-34.1-50.5-62.3-85.5-81.8-36.8-20.5-78.2-31.3-120.2-31.2z"/><path class="Show_svg__st0" d="M250.6 337.8c-48 0-87-39-87-87s39-87 87-87 87 39 87 87-39 86.9-87 87zm0-150c-34.8 0-63 28.2-63 63s28.2 63 63 63 63-28.2 63-63-28.2-63-63-63z"/></svg>