<svg xmlns="http://www.w3.org/2000/svg" viewBox="0 0 500 500" style="enable-background:new 0 0 500 500" xml:space="preserve"><path d="M426.8 448H70c-33.7 0-47.7-16-53-25.6s-11.6-30 6.2-58.9L198.4 80.3c13.1-21.2 31.1-32.8 50.8-32.8h.1c19.7 0 37.7 11.7 50.7 32.8l174 283.3c17.7 28.8 11.4 49.2 6 58.8S460.6 448 426.8 448zM222.2 95 47 378.3c-7.6 12.2-9.6 23.3-5.6 30.5S55.8 420 70 420h356.8c14.2 0 24.7-4.1 28.7-11.3s2-18.3-5.4-30.5L276.1 95c-7.7-12.6-17.2-19.5-26.9-19.5-9.6 0-19.2 6.9-27 19.5z"/></svg>