<svg xmlns="http://www.w3.org/2000/svg" viewBox="0 0 500 500" style="enable-background:new 0 0 500 500" xml:space="preserve"><path d="M469.7 94.8H30.3c-6.6 0-12 5.4-12 12v286.4c0 6.6 5.4 12 12 12h439.3c6.6 0 12-5.4 12-12V106.8c.1-6.6-5.3-12-11.9-12zm-427.4 24h294.4v17.9H42.3v-17.9zm0 41.9h294.4v16.8H42.3v-16.8zm0 40.8h294.4v16.9H42.3v-16.9zm0 40.9h294.4v16.9H42.3v-16.9zm0 40.9h294.4v16.9H42.3v-16.9zm0 40.9h294.4v16.9H42.3v-16.9zm0 41h294.4v16.1H42.3v-16.1zm415.4 16h-96.9V159.7h96.9v221.5zm0-245.5h-96.9v-16.9h96.9v16.9z"/></svg>