<svg xmlns="http://www.w3.org/2000/svg" viewBox="0 0 500 500" style="enable-background:new 0 0 500 500" xml:space="preserve"><path d="M469.6 94.5H30.4c-6.4 0-11.5 5.2-11.5 11.5v288c0 6.3 5.1 11.5 11.5 11.5h439.2c6.4 0 11.5-5.2 11.5-11.5V106c0-6.3-5.1-11.5-11.5-11.5zm-344.5 288H41.9v-16.4h83.2v16.4zm0-39.4H41.9v-16.7h83.2v16.7zm0-39.7H41.9v-16.7h83.2v16.7zm0-39.7H41.9V248h83.2v15.7zm0-38.7H41.9v-16.7h83.2V225zm0-39.8H41.9v-16.7h83.2v16.7zm0-39.7H41.9v-28h83.2v28zm114.3 237H148v-16.4h91.4v16.4zm0-39.4H148v-16.7h91.4v16.7zm0-39.7H148v-16.7h91.4v16.7zm0-39.7H148V248h91.4v15.7zm0-38.7H148v-16.7h91.4V225zm0-39.8H148v-16.7h91.4v16.7zm0-39.7H148v-28h91.4v28zm114.4 237h-91.4v-16.4h91.4v16.4zm0-39.4h-91.4v-16.7h91.4v16.7zm0-39.7h-91.4v-16.7h91.4v16.7zm0-39.7h-91.4V248h91.4v15.7zm0-38.7h-91.4v-16.7h91.4V225zm0-39.8h-91.4v-16.7h91.4v16.7zm0-39.7h-91.4v-28h91.4v28zm104.3 237h-81.3v-16.4h81.3v16.4zm0-39.4h-81.3v-16.7h81.3v16.7zm0-39.7h-81.3v-16.7h81.3v16.7zm0-39.7h-81.3V248h81.3v15.7zm0-38.7h-81.3v-16.7h81.3V225zm0-39.8h-81.3v-16.7h81.3v16.7zm0-39.7h-81.3v-28h81.3v28z"/></svg>