<svg xmlns="http://www.w3.org/2000/svg" viewBox="0 0 500 500" style="enable-background:new 0 0 500 500" xml:space="preserve"><path d="M408.9 306.8c12.1-11.8 19.7-28.2 19.7-46.4 0-35.7-29-64.7-64.7-64.7-8.6 0-16.8 1.7-24.3 4.8-10.5-7.7-21.9-13.7-34.1-17.9 12.1-11.8 19.7-28.2 19.7-46.4 0-35.7-29-64.7-64.7-64.7s-64.7 29-64.7 64.7c0 18.2 7.6 34.7 19.8 46.5-15.7 5.5-30.2 13.8-42.5 24.6-10.5-7.3-23.1-11.5-36.8-11.5-35.7 0-64.7 29-64.7 64.7 0 18.2 7.6 34.7 19.7 46.4-48 16.7-82 59.1-82 108.8 0 7.1 5.8 12.9 12.9 12.9s12.9-5.8 12.9-12.9c0-49.9 45.3-90.6 101-90.6s101 40.6 101 90.6c0 7.1 5.8 12.9 12.9 12.9 7.1 0 12.9-5.8 12.9-12.9 0-49.9 45.3-90.6 101-90.6s101 40.6 101 90.6c0 7.1 5.8 12.9 12.9 12.9s12.9-5.8 12.9-12.9c0-49.7-34-92.1-81.8-108.9zm-6.1-46.4c0 21.4-17.4 38.9-38.9 38.9-21.4 0-38.9-17.4-38.9-38.9 0-21.4 17.4-38.9 38.9-38.9 21.4 0 38.9 17.5 38.9 38.9zM221.5 136.1c0-21.4 17.4-38.9 38.9-38.9 21.4 0 38.9 17.4 38.9 38.9 0 21.4-17.4 38.9-38.9 38.9-21.4 0-38.9-17.5-38.9-38.9zM97.2 260.4c0-21.4 17.4-38.9 38.9-38.9 21.4 0 38.9 17.4 38.9 38.9 0 21.4-17.4 38.9-38.9 38.9-21.4 0-38.9-17.5-38.9-38.9zM250 364.5c-14.1-26.3-38.8-47.1-68.9-57.6 12.1-11.8 19.7-28.2 19.7-46.4 0-12.7-3.7-24.5-10-34.5 18.7-16 43.7-25 69.6-25 20.3 0 39.6 5.3 56.2 15.4-10.8 11.6-17.5 27.1-17.5 44.2 0 18.2 7.6 34.7 19.7 46.4-30 10.4-54.7 31.1-68.8 57.5z"/></svg>