<svg xmlns="http://www.w3.org/2000/svg" viewBox="0 0 500 500" style="enable-background:new 0 0 500 500" xml:space="preserve"><path d="M250 486.1c-129.7 0-234.8-105.2-234.8-234.8 0-62.3 24.7-122 68.8-166C174.5-7.6 323.2-9.5 416 81s94.8 239.2 4.2 332c-1.4 1.4-2.8 2.9-4.3 4.3-43.8 44.2-103.6 68.9-165.9 68.8zm0-444.6c-115.7 0-209.8 94.1-209.8 209.8S134.3 461.1 250 461.1 459.8 367 459.8 251.3 365.7 41.5 250 41.5z"/><path d="M205.5 352.7c-6.9 0-12.5-5.6-12.5-12.5 0-1.9.5-3.8 1.3-5.6l43.1-86.3V117.9c0-6.9 5.6-12.5 12.5-12.5s12.5 5.6 12.5 12.5v133.4c0 1.9-.5 3.9-1.3 5.6l-44.5 88.9c-2 4.2-6.3 6.9-11.1 6.9z"/></svg>