<svg xmlns="http://www.w3.org/2000/svg" viewBox="0 0 500 500" style="enable-background:new 0 0 500 500" xml:space="preserve"><path d="M128.9 60.1c-6.6 0-12-5.4-12-12 0-4.2 2.2-8.1 5.8-10.3 9-5.4 18.3-10.2 27.8-14.4 6.1-2.7 13.2.1 15.8 6.2s-.1 13.2-6.2 15.8c-8.7 3.8-17.1 8.1-25.2 13-1.7 1.1-3.9 1.7-6 1.7zM37.3 160.9c-6.6 0-12-5.4-12-12 0-1.8.4-3.5 1.2-5.2 6.9-14.5 15.2-28.2 24.7-41.1 4-5.3 11.5-6.4 16.8-2.5 5.3 4 6.4 11.5 2.5 16.8-8.6 11.6-16.1 24-22.3 37.1-2.1 4.3-6.3 6.9-10.9 6.9zM23.9 328.3a12 12 0 0 1-11.5-8.6c-6.6-22.6-9.9-46-9.9-69.6 0-6.6 5.4-12 12-12s12 5.4 12 12c0 21.3 3 42.4 9 62.8 1.9 6.4-1.8 13-8.1 14.9-1.1.3-2.3.5-3.5.5zM142.8 471.8c-1.9 0-3.8-.5-5.5-1.3-28.1-14.4-53.2-34-73.9-57.8-4.3-5-3.7-12.6 1.3-16.9 5-4.2 12.4-3.7 16.8 1.1 18.7 21.5 41.4 39.2 66.8 52.2 5.9 3 8.2 10.3 5.2 16.2-2.1 4-6.2 6.5-10.7 6.5zM250 497.6c-6.6 0-12-5.4-12-12s5.4-12 12-12c37.7 0 74.8-9.5 107.8-27.7 5.7-3.4 13.1-1.5 16.4 4.2s1.5 13.1-4.2 16.4l-.6.3c-36.6 20.3-77.6 30.8-119.4 30.8zM438.4 403.5c-6.6 0-12-5.4-12-12 0-2.6.8-5.1 2.4-7.2 25.1-33.4 40.4-73.2 43.9-114.9.5-6.4.8-12.9.8-19.3 0-6.6 5.4-12 12-12s12 5.4 12 12c0 7.1-.3 14.3-.9 21.3-3.9 46.1-20.8 90.2-48.6 127.2-2.3 3.1-5.9 4.9-9.6 4.9zM469.8 177.4c-5 0-9.4-3.1-11.2-7.7C425.3 83.5 342.4 26.6 250 26.6c-6.6 0-12-5.4-12-12s5.4-12 12-12c102.4 0 194.2 63 231 158.5 2.4 6.2-.7 13.1-6.9 15.5-1.4.5-2.8.8-4.3.8zM250.9 271.1h-.3s-12-5.5-12.6-12.1c.7-36.6 1-116.7 1-116.7v-29.9c0-.4-.1-.9-.1-1.3V110c.1-6.5 5.4-11.8 12-11.8h.1c6.6.1 12 5.5 11.9 12.1v74.4c0 37.3-.1 74.5-.1 74.5 0 6.5-5.3 11.9-11.9 11.9z"/></svg>