<svg xmlns="http://www.w3.org/2000/svg" viewBox="0 0 500 500" style="enable-background:new 0 0 500 500" xml:space="preserve"><path d="M265.2 241.2c5.2-3.5 8.3-9.4 8.3-15.6-1.2-12.1-12-20.9-24.1-19.6-10.4 1.1-18.6 9.3-19.6 19.6.1 6.3 3.2 12.1 8.4 15.6 3.3 2.3 4.8 6.4 3.9 10.2l-9.7 34.8h38.8l-9.7-34.8c-1.1-3.8.4-7.8 3.7-10.2zm0 0c5.2-3.5 8.3-9.4 8.3-15.6-1.2-12.1-12-20.9-24.1-19.6-10.4 1.1-18.6 9.3-19.6 19.6.1 6.3 3.2 12.1 8.4 15.6 3.3 2.3 4.8 6.4 3.9 10.2l-9.7 34.8h38.8l-9.7-34.8c-1.1-3.8.4-7.8 3.7-10.2zm0 0c5.2-3.5 8.3-9.4 8.3-15.6-1.2-12.1-12-20.9-24.1-19.6-10.4 1.1-18.6 9.3-19.6 19.6.1 6.3 3.2 12.1 8.4 15.6 3.3 2.3 4.8 6.4 3.9 10.2l-9.7 34.8h38.8l-9.7-34.8c-1.1-3.8.4-7.8 3.7-10.2z"/><path d="M476.4 148.1H353.5l-31.7-52c-3.4-5.2-9.3-8.2-15.5-8.1H194.8c-6.3-.1-12.1 3-15.5 8.3l-29.6 51.9H27c-4.4-.1-8.1 3.4-8.2 7.9v234.6c.1 4.4 3.8 8 8.2 7.9h449.3c4.4.1 8.1-3.4 8.2-7.9V156c0-4.5-3.7-8-8.1-7.9zm-280.9-31.7c1.3-2.2 3.6-3.2 4.6-3.2h100.4c2.3.1 4.4 1.3 5.8 3.2l18 31.7H179.4l16.1-31.7zm265.7 121.2h-159c-1.4 0-2.7.5-3.7 1.5-1.1 1.1-2.4 2.2-3.6 3.1-1.6 1.1-2.3 3-1.9 4.9l4 14.9h164.2v108.5c0 1.7-1.3 3-3 3h-413c-1.7 0-3-1.3-3-3V262.4h163.1l5.3-15.2c1.5-1.9-.3-3.8-1.9-4.9-1.3-1-2.5-2-3.7-3.1-1-1-2.3-1.5-3.7-1.5H42.2V177c0-1.7 1.3-3 3-3h413.1c1.7 0 3 1.3 3 3v60.6z"/></svg>