<svg xmlns="http://www.w3.org/2000/svg" viewBox="0 0 500 500" style="enable-background:new 0 0 500 500" xml:space="preserve"><path d="M361 413.6c-6.6 0-12-5.4-12-12v-41.3H181.9c-6.6 0-12-5.4-12-12s5.4-12 12-12H361c6.6 0 12 5.4 12 12v26.1l86.4-78.6-88.3-75.8v30.5c0 6.6-5.4 12-12 12H135.9v33c0 6.6-5.3 12-11.9 12.1-3 0-5.8-1.1-8.1-3.1l-105.4-94c-4.9-4.4-5.4-12-1-16.9.2-.3.5-.5.8-.8l105.4-98.3c4.8-4.5 12.4-4.3 17 .6 2.1 2.2 3.2 5.1 3.2 8.2v39.4h159.5c6.6 0 12 5.4 12 12s-5.4 12-12 12H123.8c-6.6 0-12-5.4-12-12v-23.8l-75.6 70.5 75.6 67.4v-18.3c0-6.6 5.4-12 12-12H347v-44.6c0-6.6 5.4-12 12-12 2.9 0 5.6 1 7.8 2.9l118.4 101.6c5 4.3 5.6 11.9 1.3 16.9-.3.4-.7.7-1 1.1L369.1 410.5c-2.2 2-5.1 3.1-8.1 3.1z"/></svg>