<svg xmlns="http://www.w3.org/2000/svg" viewBox="0 0 500 500" style="enable-background:new 0 0 500 500" xml:space="preserve"><path d="M463.7 41H312.8c3.8-5.5 2.5-13-3-16.8-2.1-1.5-4.6-2.2-7.1-2.2h-108c-6.7-.1-12.2 5.2-12.3 11.9 0 2.5.7 5 2.2 7.1H34.2c-6.3-.1-11.6 4.6-12.3 10.9-.6 6.6 4.2 12.4 10.8 13 .4 0 .8.1 1.2.1H76v401c0 6.6 5.4 12 12 12h322c6.6 0 12-5.4 12-12V65h41.4c6.3.1 11.6-4.6 12.3-10.9.6-6.6-4.2-12.4-10.8-13-.4-.1-.8-.1-1.2-.1zM398 454H100V65h298v389z"/><path d="M280 331.5V197.9c-.1-6 4.1-11.1 10-12.2 6.5-1.1 12.7 3.3 13.8 9.8.1.7.2 1.3.2 2v134.3c0 6.6-5.4 12-12 12-.7 0-1.3-.1-2-.2-5.9-1-10.1-6.1-10-12.1zM197 331.5V197.9c-.1-6 4.1-11.1 10-12.2 6.5-1.1 12.7 3.3 13.8 9.8.1.7.2 1.3.2 2v134.3c0 6.6-5.4 12-12 12-.7 0-1.3-.1-2-.2-5.9-1-10.1-6.1-10-12.1z"/></svg>