<?xml version="1.0" encoding="utf-8"?>
<!-- Generator: Adobe Illustrator 26.0.1, SVG Export Plug-In . SVG Version: 6.00 Build 0)  -->
<svg version="1.1" xmlns="http://www.w3.org/2000/svg" xmlns:xlink="http://www.w3.org/1999/xlink" x="0px" y="0px"
	 viewBox="0 0 500 500" style="enable-background:new 0 0 500 500;" xml:space="preserve">
<g>
	<path d="M216.9,353.6l-153,40.6L32.7,273.2l151.7-40.9c6.9-1.9,11-9,9.1-15.8c-1.9-6.9-9-11-15.8-9.1l-164,44.2
		c-6.9,1.8-10.9,8.8-9.1,15.7l37.6,146c0.9,3.3,3,6.2,6,7.9c3,1.7,6.5,2.2,9.8,1.3l165.6-44c6.9-1.8,11-8.9,9.2-15.8
		C230.9,355.9,223.8,351.8,216.9,353.6L216.9,353.6z M277.5,378.6l165.6,44c3.3,0.9,6.9,0.4,9.8-1.3c3-1.7,5.1-4.6,6-7.9l37.6-146
		c1.8-6.9-2.3-13.9-9.1-15.7l-164-44.2c-6.9-1.9-14,2.2-15.8,9.1c-1.9,6.9,2.2,14,9.1,15.8l151.7,40.9l-31.2,121.1l-153-40.6
		c-6.9-1.8-14,2.3-15.8,9.2C266.5,369.7,270.6,376.8,277.5,378.6L277.5,378.6z"/>
	<path d="M266,157.2v-56.9c0-7.1-5.8-12.9-12.9-12.9c-7.1,0-12.9,5.8-12.9,12.9v56.9c0,7.1,5.8,12.9,12.9,12.9
		C260.3,170.1,266,164.4,266,157.2z M324.2,172.8l28.4-49.2c3.6-6.2,1.5-14.1-4.7-17.7c-6.2-3.6-14.1-1.5-17.7,4.7l-28.4,49.2
		c-3.6,6.2-1.5,14.1,4.7,17.7C312.7,181.1,320.6,179,324.2,172.8z M209.6,159.9l-28.5-49.3c-3.6-6.2-11.5-8.3-17.7-4.7
		c-6.2,3.6-8.3,11.5-4.7,17.7l28.5,49.3c3.6,6.2,11.5,8.3,17.7,4.7C211.1,174,213.2,166,209.6,159.9z"/>
</g>
</svg>
