<svg xmlns="http://www.w3.org/2000/svg" viewBox="0 0 500 500" style="enable-background:new 0 0 500 500" xml:space="preserve"><path d="M283.8 309.5c1.2 15.1-7.7 29.1-21.8 34.5v54.4c.1 6.3-4.6 11.6-10.9 12.3-6.6.6-12.4-4.2-13-10.8 0-.4-.1-.8-.1-1.2V344c-17.5-6.6-26.3-26.2-19.7-43.7s26.2-26.3 43.7-19.7c12.2 4.6 20.7 15.9 21.8 28.9z"/><path d="M423 177.9H169.1l-6-56.7c-4.8-45.8 30-87.2 77.8-92.3s87.2 29.4 99.9 89.9l23.4-7.2-2.8-11.6c-18-62-62.2-101.5-123-95.1s-105.3 59.7-99.1 118.7l5.7 54.2H77c-6.6 0-12 5.4-12 12V486c0 6.6 5.4 12 12 12l346-.1c6.6 0 12-5.4 12-12v-296c0-6.6-5.4-12-12-12zm-12 296L89 474V201.9h322v272z"/></svg>