<svg xmlns="http://www.w3.org/2000/svg" viewBox="0 0 500 500" style="enable-background:new 0 0 500 500" xml:space="preserve"><path d="m119.9 85.5-13-17.8c-.8-1.1-.6-2.7.5-3.5 1.2-.8 2.4-1.7 3.6-2.5 24.6-17 52.1-29.2 81.2-36.1 1.3-.3 2.7.5 3 1.8l4.9 21.5c.3 1.3-.5 2.7-1.8 3-25.8 6.1-50.1 17-71.9 32l-3 2.1c-1.1.9-2.7.6-3.5-.5zM250.4 481.2c-41.8.1-82.9-10.4-119.5-30.5-1.3-.7-1.7-2.3-1-3.6l10.7-18.9c.7-1.3 2.3-1.7 3.6-1 32.6 17.8 69.1 27.1 106.2 27 56.2 0 109.2-21.2 149.2-59.9s61.8-89.4 61.8-143.3c0-112.3-93.2-203.8-208.3-205.2-1.4 0-2.6-1.2-2.6-2.6V21.5c0-1.4 1.2-2.6 2.6-2.6 62.4.7 121 24.6 165.3 67.7 45.1 43.8 70 102.3 70 164.4 0 61.4-24.9 119.2-70 162.8s-104.8 67.4-168 67.4zM81.2 413.7c-1 1-2.6 1-3.7 0-39-40-62-93-64.5-148.9-2.6-55.6 14.6-110.9 48.5-156.1.9-1.1 2.5-1.4 3.6-.5l17.3 13.3c1.1.9 1.3 2.5.5 3.6-30.1 40.2-45.3 89.2-43 138.4 2.2 49.2 22.4 95.8 56.7 131.1 1 1 1 2.6 0 3.6l-15.4 15.5z"/></svg>