<svg xmlns="http://www.w3.org/2000/svg" viewBox="0 0 500 500" style="enable-background:new 0 0 500 500" xml:space="preserve"><path d="M420 308.4c-30.2-30.3-67.9-52-109.2-62.9C372 211.4 394 134.1 359.9 72.9S248.4-10.3 187.2 23.8 104 135.2 138.1 196.4a127.3 127.3 0 0 0 49.1 49.1C81.1 273.7 7.2 369.7 7.2 479.4c0 6.6 5.4 12 12 12s12-5.4 12-12c0-120.3 97.6-217.8 217.9-217.8 57.7 0 113.1 22.9 154 63.8 41 40.8 64 96.2 63.8 154 0 6.6 5.4 12 12 12s12-5.4 12-12c.1-64.1-25.4-125.7-70.9-171zM146.1 134.7c0-56.8 46.1-102.9 102.9-102.9s102.9 46.1 102.9 102.9S305.8 237.6 249 237.6s-102.9-46.1-102.9-102.9z"/></svg>