<svg xmlns="http://www.w3.org/2000/svg" viewBox="0 0 500 500" style="enable-background:new 0 0 500 500" xml:space="preserve"><path d="M234 295.5c0 7.8 7.1 14 16 14s16-6.1 16-14V171.4c0-7.8-7.1-14-16-14s-16 6.1-16 14v124.1zM229.6 363.6c0 10.8 8.8 19.6 19.6 19.6s19.6-8.8 19.6-19.6S260 344 249.2 344s-19.5 8.7-19.6 19.5v.1z"/><path d="M250 62.7 465.7 430H34.3L250 62.7zm0-27.4c-7.2 0-13.9 3.8-17.6 10L7.9 427.7c-4.9 8.2-2.3 18.9 6 23.8 2.7 1.6 5.8 2.5 8.9 2.5h454.5c9.6 0 17.4-7.8 17.4-17.4 0-3.1-.9-6.2-2.5-8.9L267.6 45.3c-3.7-6.2-10.4-10-17.6-10z"/></svg>