<svg xmlns="http://www.w3.org/2000/svg" viewBox="0 0 500 500" style="enable-background:new 0 0 500 500" xml:space="preserve"><path d="M18.6 364.4c-6.4 0-11.5-5.1-11.5-11.5L7.5 53c0-6.4 5.1-11.5 11.5-11.5h136.1c6.4 0 11.5 5.1 11.5 11.5s-5.1 11.5-11.5 11.5H30.5l-.4 288.4c0 6.3-5.1 11.5-11.5 11.5z"/><path d="M71.7 416.1c-6.4 0-11.5-5.2-11.5-11.5l.4-299.9c0-6.3 5.2-11.5 11.5-11.5h136c6.4 0 11.5 5.1 11.5 11.5s-5.1 11.5-11.5 11.5H83.6l-.3 288.4c-.1 6.4-5.2 11.5-11.6 11.5zM443.3 168H301.7c-6.4 0-11.5-5.1-11.5-11.5s5.1-11.5 11.5-11.5h141.5c6.4 0 11.5 5.1 11.5 11.5s-5.1 11.5-11.4 11.5zM407.9 116.2H266.3c-6.4 0-11.5-5.1-11.5-11.5s5.1-11.5 11.5-11.5h141.5c6.4 0 11.5 5.1 11.5 11.5s-5.1 11.5-11.4 11.5z"/><path d="M478.6 461.4H124.8c-6.4 0-11.5-5.1-11.5-11.5V156.5c0-6.3 5.2-11.5 11.5-11.5H242c3.7 0 7.2 1.8 9.3 4.8l34 47.2h193.3c6.4 0 11.5 5.1 11.5 11.5V450c0 6.3-5.1 11.4-11.5 11.4zm-342.3-23h330.9V219.9H279.4c-3.7 0-7.2-1.8-9.3-4.8l-34-47.1h-99.8v270.4z"/></svg>