<svg xmlns="http://www.w3.org/2000/svg" viewBox="0 0 500 500" style="enable-background:new 0 0 500 500" xml:space="preserve"><path d="M75.8 413.1c-6.6-.1-11.9-5.4-11.8-12l.3-295c0-6.6 5.4-12 12-12H205c6-.1 11.1 4.1 12.2 10 1.1 6.5-3.3 12.7-9.8 13.8-.7.1-1.3.2-2 .2H88l-.3 283c0 6.6-5.3 12-11.9 12zM439 177.1H321.8c-6 .1-11.1-4.1-12.2-10-1.1-6.5 3.3-12.7 9.8-13.8.7-.1 1.3-.2 2-.2h117.2c6-.1 11.1 4.1 12.2 10 1.1 6.5-3.3 12.7-9.8 13.8-.7.2-1.3.2-2 .2z"/><path d="M17.8 354.1c-6.6 0-11.9-5.4-11.8-12l.3-295c0-6.6 5.4-12 12-12H147c6-.1 11.1 4.1 12.2 10 1.1 6.5-3.3 12.7-9.8 13.8-.7.1-1.3.2-2 .2H30l-.3 283c0 6.6-5.3 12-11.9 12zM381.6 118.1H267.9c-6 .1-11.1-4.1-12.2-10-1.1-6.5 3.3-12.7 9.8-13.8.7-.1 1.3-.2 2-.2h113.7c6-.1 11.1 4.1 12.2 10 1.1 6.5-3.3 12.7-9.8 13.8-.6.2-1.3.2-2 .2zM481 466.1H133c-6.6 0-12-5.4-12-12v-288c0-6.6 5.4-12 12-12h111c3.6 0 7 1.6 9.2 4.3l43.6 52.7H481c6.6 0 12 5.4 12 12v231c0 6.6-5.4 12-12 12zm-336-24h324v-207H291.3c-3.6 0-7-1.6-9.2-4.3l-43.6-52.7H145v264z"/></svg>